<?xml version="1.0" encoding="utf-8"?>
<!-- Generator: Adobe Illustrator 19.1.1, SVG Export Plug-In . SVG Version: 6.00 Build 0)  -->
<svg version="1.1" id="Layer_1" xmlns="http://www.w3.org/2000/svg" xmlns:xlink="http://www.w3.org/1999/xlink" x="0px" y="0px"
	 viewBox="-35 41.3 77.4 68.7" style="enable-background:new -35 41.3 77.4 68.7;" xml:space="preserve">
<style type="text/css">
	.st0{fill:#F7CD79;}
	.st1{fill:#D8A555;}
</style>
<path class="st0" d="M9.1,89.8c-9.6-5-13.1-17-8-26.9c4.9-9.5,16.1-13.5,25.4-9.4c-2.6-3.2-5.9-5.9-9.7-7.9
	C0.9,37.4-18.9,44-27.5,60.4c-8.5,16.5-2.6,36.5,13.3,44.8s35.7,1.6,44.2-14.8c0.7-1.4,1.3-2.8,1.9-4.3C25.9,92,16.8,93.8,9.1,89.8z
	"/>
<g>
	<path class="st1" d="M-29.8,41.3C-34.1,68.5-5.1,88.5-5.1,88.5c41.4,28.2,41.2-9.1,41.2-9.1l0,0C43.7,90.5,40,97.6,40,97.6
		c-10.6,24-43.3,1.7-43.3,1.7c-13.3-10.1-20.9-19.6-25-27.8C-20.7,93.9-1.7,110-1.7,110c-48.2-31.4-30.6-64.5-28.4-68.1
		C-29.9,41.5-29.8,41.3-29.8,41.3z"/>
</g>
<path class="st1" d="M35.1,54.1c-6.6-3.4-14.6-1-17.9,5.4c-3.3,6.4-0.7,14.3,5.9,17.8c6.6,3.4,14.6,1,17.9-5.4
	C44.3,65.4,41.6,57.5,35.1,54.1z"/>
</svg>
