<?xml version="1.0" encoding="utf-8"?>
<!-- Generator: Adobe Illustrator 19.1.1, SVG Export Plug-In . SVG Version: 6.00 Build 0)  -->
<svg version="1.1" id="Layer_1" xmlns="http://www.w3.org/2000/svg" xmlns:xlink="http://www.w3.org/1999/xlink" x="0px" y="0px"
	 viewBox="-218 68 219 217.8" style="enable-background:new -218 68 219 217.8;" xml:space="preserve">
<style type="text/css">
	.st0{fill:#487CA8;}
	.st1{fill:#FFFFFF;}
	.st2{fill:#E2E2E2;}
</style>
<path class="st0" d="M-59,219.5h-177c-11,0-20-9-20-20v-177c0-11,9-20,20-20h177c11,0,20,9,20,20v177C-39,210.5-48,219.5-59,219.5z"
	/>
<g>
	
		<image style="overflow:visible;opacity:0.5;" width="181" height="172" xlink:href="B2A4972C.png"  transform="matrix(1 0 0 1 -227 27.5)">
	</image>
	<g>
		<g>
			<g>
				<path class="st1" d="M-220.9,56.8c0.7,0,0.7-0.7,0.9-1.1c2.1-4.5,5.6-6.8,10.5-6.8c37,0,74.1,0,111.1,0c0.5,0,1.2-0.2,1.4,0.3
					s-0.4,0.9-0.7,1.2c-1.8,2.3-3.7,4.5-5.4,6.9c-0.8,1-1.6,1.5-2.9,1.5c-33.5,0-67,0-100.5,0c-4.3,0-4.5,0.2-4.5,4.5
					c0,23.5,0,46.9,0,70.4c0,3,0.5,3.5,3.6,3.5c39.6,0,79.2,0,118.7,0c0.7,0,1.3,0,2,0c2.3,0,3-0.7,3-3c0-13.3,0-26.5,0-39.8
					c0-1.7,0.4-3.1,1.5-4.4c2.6-3.1,4.8-6.5,7-9.8c0.3-0.4,0.5-1,1.1-1.2c0.4,0.5,0.2,1,0.2,1.5c0,23.3,0,46.5,0,69.8
					c0,6.8-4.8,11.6-11.6,11.6c-15.1,0-30.3,0-45.4,0c-2.3,0-2.4,0.2-1.8,2.4c1.4,5.5,5.3,8.1,10.5,9.2c0.6,0.1,1.2,0.2,1.8,0.3
					c1.6,0.3,2.4,1.2,2.5,2.8c0,0.6,0,1.1,0,1.7c0,2.3-0.9,3.1-3.2,3.1c-17.4,0-34.9,0-52.3,0c-2.5,0-3.2-0.8-3.3-3.4
					c0-3.4,0.4-3.9,3.8-4.5c5.4-1,9.5-3.6,11-9.2c0.6-2.3,0.4-2.5-1.9-2.5c-15,0-30.1,0-45.1,0c-5.2,0-9-2.3-11.1-7.1
					c-0.2-0.3-0.2-0.8-0.7-0.8C-220.9,121.2-220.9,89-220.9,56.8z M-147.6,143.8c-3,0-5.3,2.5-5.3,5.4c0,3,2.4,5.3,5.4,5.3
					s5.5-2.5,5.4-5.5C-142.2,146.1-144.6,143.8-147.6,143.8z"/>
				<path class="st1" d="M-64.2,43c-0.5,0-0.5,0.4-0.6,0.8C-67,52-70.9,59.3-75,66.6c-3,5.3-6.2,10.5-9.6,15.6
					c-0.7,1-1.3,1.3-2.5,0.9c-6.9-2.1-12.5-6-16.9-11.8c-0.5-0.7-0.8-1.2-0.2-2C-96.7,59-89,49-79.5,40.4c2.5-2.3,5.2-4.3,8.3-5.7
					c0.3-0.1,0.6-0.2,0.6-0.6c1.3,0,2.7,0,4,0c0.8,0.9,1.6,1.8,2.4,2.8C-64.2,38.9-64.2,40.9-64.2,43z"/>
				<path class="st1" d="M-148.2,68.4c11.7,0,23.3,0,35,0c0.5,0,1.3-0.3,1.5,0.3c0.3,0.5-0.3,1-0.6,1.5c-2.8,4.6-5.2,9.4-5.9,14.8
					c-0.1,0.8-0.6,1.1-1.3,1.4c-3.4,1.5-6.9,1.7-10.6,1.6c-17.6-0.1-35.2,0-52.8,0c-3.1,0-3.8-0.6-3.8-3.7c0-4,0-8.1,0-12.1
					c0-3.2,0.6-3.8,3.9-3.8C-171.3,68.4-159.8,68.4-148.2,68.4z"/>
				<path class="st1" d="M-126.4,127.1c-2.1,0-4.9-0.6-7.4-1.9c-1.7-0.8-1.9-2.3-0.4-3.3c4.3-2.9,5.3-6.9,4.7-11.7
					c-0.9-7.7,2.5-14.1,8.7-16.8c2.2-1,4.6-1.5,7-1.6c1.2,0,1.7-0.5,1.7-1.8c-0.1-4.6,1.1-8.9,3.2-12.9c0.5-1,0.9-1.2,1.6-0.2
					c4.2,5.5,9.5,9.3,16.2,11.2c1.4,0.4,1.2,0.9,0.3,1.7c-3.3,3.3-7.1,6-11.5,7.7c-0.6,0.2-1.3,0.4-0.8,1.4
					c2.2,4.2,1.8,8.4,0.1,12.5C-106.7,120.4-116.6,127.2-126.4,127.1z"/>
				<path class="st1" d="M-162.2,110.2c0,4.6,0,9.3,0,13.9c0,2.2-0.8,3.1-3.1,3.1c-6.1,0-12.2,0-18.4,0c-2.2,0-3-0.8-3.1-3.1
					c0-9.4,0-18.8,0-28.2c0-2.2,0.8-3,3.1-3.1c6.1,0,12.2,0,18.4,0c2.2,0,3,0.8,3.1,3.1C-162.2,100.7-162.2,105.4-162.2,110.2z"/>
				<path class="st1" d="M-130.7,92.9c-1.2,1.6-2.1,2.9-2.9,4.4c-0.3,0.6-0.8,0.5-1.3,0.5c-6.9,0-13.8,0-20.6,0
					c-1.2,0-1.8-0.6-1.7-1.8c0-0.4,0-0.7,0-1.1c0-1.8,0.3-2.1,2-2.1c6,0,12,0,18,0C-135.2,92.9-133.1,92.9-130.7,92.9z"/>
				<path class="st1" d="M-146.3,102.7c3.1,0,6.1,0,9.2,0c1,0,1.5,0.1,1.3,1.3c-0.4,3.6-0.4,3.6-4,3.6c-5.1,0-10.2,0-15.3,0
					c-2.1,0-2.2-0.2-2.2-2.5c0-2.2,0.2-2.4,2.3-2.4C-152.1,102.7-149.2,102.7-146.3,102.7z"/>
				<path class="st1" d="M-146.4,112.5c3,0,5.9,0,8.9,0c1.6,0,2.1,0.8,1.5,2.3c-0.5,1.2-2.5,2.6-3.9,2.6c-5.1,0-10.3,0-15.4,0
					c-1.8,0-2-0.2-2-2.6c0-2.1,0.2-2.3,2.1-2.3C-152.3,112.5-149.3,112.5-146.4,112.5z"/>
				<path class="st1" d="M-148.8,127.2c-2.2,0-4.5,0-6.7,0c-1.2,0-1.8-0.5-1.7-1.8c0-0.5,0-1,0-1.5c0-1.1,0.5-1.6,1.6-1.6
					c4.3,0,8.7,0,13,0c0.8,0,1.1,0.3,1.1,1.1c0,0.6,0.1,1.1,0.2,1.7c0.5,2.2,0.5,2.2-1.7,2.2C-145,127.2-146.9,127.2-148.8,127.2z"
					/>
			</g>
		</g>
	</g>
</g>
<g>
	<path class="st2" d="M-63.9,43.3c-0.5,0-0.5,0.4-0.6,0.8c-2.2,8.2-6.1,15.5-10.2,22.8c-3,5.3-6.2,10.5-9.6,15.6
		c-0.7,1-1.3,1.3-2.5,0.9c-6.9-2.1-12.5-6-16.9-11.8c-0.5-0.7-0.8-1.2-0.2-2c7.5-10.3,15.2-20.3,24.7-28.9c2.5-2.3,5.2-4.3,8.3-5.7
		c0.3-0.1,0.6-0.2,0.6-0.6c1.3,0,2.7,0,4,0c0.8,0.9,1.6,1.8,2.4,2.8C-63.9,39.2-63.9,41.2-63.9,43.3z"/>
	<path class="st2" d="M-126.1,127.4c-2.1,0-4.9-0.6-7.4-1.9c-1.7-0.8-1.9-2.3-0.4-3.3c4.3-2.9,5.3-6.9,4.7-11.7
		c-0.9-7.7,2.5-14.1,8.7-16.8c2.2-1,4.6-1.5,7-1.6c1.2,0,1.7-0.5,1.7-1.8c-0.1-4.6,1.1-8.9,3.2-12.9c0.5-1,0.9-1.2,1.6-0.2
		c4.2,5.5,9.5,9.3,16.2,11.2c1.4,0.4,1.2,0.9,0.3,1.7c-3.3,3.3-7.1,6-11.5,7.7c-0.6,0.2-1.3,0.4-0.8,1.4c2.2,4.2,1.8,8.4,0.1,12.5
		C-106.4,120.7-116.3,127.5-126.1,127.4z"/>
</g>
</svg>
