<?xml version="1.0" encoding="utf-8"?>
<!-- Generator: Adobe Illustrator 19.1.1, SVG Export Plug-In . SVG Version: 6.00 Build 0)  -->
<svg version="1.1" id="Layer_1" xmlns="http://www.w3.org/2000/svg" xmlns:xlink="http://www.w3.org/1999/xlink" x="0px" y="0px"
	 viewBox="-1031 267 217.5 217.8" style="enable-background:new -1031 267 217.5 217.8;" xml:space="preserve">
<style type="text/css">
	.st0{fill:#487CA8;}
	.st1{fill:none;}
	.st2{fill:url(#SVGID_1_);}
	.st3{fill:none;stroke:url(#SVGID_2_);stroke-width:9;}
	.st4{fill:none;stroke:url(#SVGID_3_);stroke-width:9;}
</style>
<path class="st0" d="M-833.8,484h-177c-11,0-20-9-20-20V287c0-11,9-20,20-20h177c11,0,20,9,20,20v177
	C-813.8,475-822.8,484-833.8,484z"/>
<g>
	<path class="st1" d="M-905.3,483.4c-0.2-0.3-0.5-0.5-0.7-0.7c-0.2-0.3-0.5-0.5-0.7-0.7c-0.2-0.3-0.5-0.5-0.7-0.7
		c-0.2-0.3-0.5-0.5-0.7-0.7c-0.2-0.3-0.5-0.5-0.7-0.7c-0.2-0.3-0.5-0.5-0.7-0.7c-0.2-0.3-0.5-0.5-0.7-0.7c-0.2-0.3-0.5-0.5-0.7-0.7
		c-0.2-0.3-0.5-0.5-0.7-0.7c-0.2-0.3-0.5-0.5-0.7-0.7c-0.2-0.3-0.5-0.5-0.7-0.7c-0.2-0.3-0.5-0.5-0.7-0.7c-0.2-0.3-0.5-0.5-0.7-0.7
		c-0.2-0.3-0.5-0.5-0.7-0.7c-0.2-0.3-0.5-0.5-0.7-0.7c-0.2-0.3-0.5-0.5-0.7-0.7c-0.2-0.3-0.5-0.5-0.7-0.7c-0.2-0.3-0.5-0.5-0.7-0.7
		c-0.2-0.3-0.5-0.5-0.7-0.7c-0.2-0.3-0.5-0.5-0.7-0.7c-0.2-0.3-0.5-0.5-0.7-0.7c-0.2-0.3-0.5-0.5-0.7-0.7c-0.2-0.3-0.5-0.5-0.7-0.7
		c-0.2-0.3-0.5-0.5-0.7-0.7c-0.2-0.3-0.5-0.5-0.7-0.7c-0.2-0.3-0.5-0.5-0.7-0.7c-0.2-0.3-0.5-0.5-0.7-0.7c-0.2-0.3-0.5-0.5-0.7-0.7
		c-0.2-0.3-0.5-0.5-0.7-0.7c-0.2-0.3-0.5-0.5-0.7-0.7c-0.2-0.3-0.5-0.5-0.7-0.7c-0.2-0.3-0.5-0.5-0.7-0.7c-0.2-0.3-0.5-0.5-0.7-0.7
		c-0.2-0.3-0.5-0.5-0.7-0.7c-0.2-0.3-0.5-0.5-0.7-0.7c-0.2-0.3-0.5-0.5-0.7-0.7c-0.2-0.3-0.5-0.5-0.7-0.7c-0.2-0.3-0.5-0.5-0.7-0.7
		c-0.2-0.3-0.5-0.5-0.7-0.7c-0.2-0.3-0.5-0.5-0.7-0.7c-0.2-0.3-0.5-0.5-0.7-0.7c-0.2-0.3-0.5-0.5-0.7-0.7c-0.2-0.3-0.5-0.5-0.7-0.7
		c-0.2-0.3-0.5-0.5-0.7-0.7c-0.2-0.3-0.5-0.5-0.7-0.7c-0.2-0.3-0.5-0.5-0.7-0.7c-0.2-0.3-0.5-0.5-0.7-0.7c-0.2-0.3-0.5-0.5-0.7-0.7
		c-0.2-0.3-0.5-0.5-0.7-0.7c-0.2-0.3-0.5-0.5-0.7-0.7c-0.2-0.3-0.5-0.5-0.7-0.7c-0.2-0.3-0.5-0.5-0.7-0.7c-0.2-0.3-0.5-0.5-0.7-0.7
		c-0.2-0.3-0.5-0.5-0.7-0.7c-0.2-0.3-0.5-0.5-0.7-0.7c-0.2-0.3-0.5-0.5-0.7-0.7c-0.2-0.3-0.5-0.5-0.7-0.7c-0.2-0.3-0.5-0.5-0.7-0.7
		c-0.2-0.3-0.5-0.5-0.7-0.7c-0.2-0.3-0.5-0.5-0.7-0.7c-0.2-0.3-0.5-0.5-0.7-0.7c-0.2-0.3-0.5-0.5-0.7-0.7c-0.2-0.3-0.5-0.5-0.7-0.7
		c-0.2-0.3-0.5-0.5-0.7-0.7c-0.2-0.3-0.5-0.5-0.7-0.7c-0.2-0.3-0.5-0.5-0.7-0.7c-0.2-0.3-0.5-0.5-0.7-0.7c-0.2-0.3-0.5-0.5-0.7-0.7
		c-0.2-0.3-0.5-0.5-0.7-0.7c-0.2-0.3-0.5-0.5-0.7-0.7c-0.2-0.3-0.5-0.5-0.7-0.7c-0.2-0.3-0.5-0.5-0.7-0.7c-0.2-0.3-0.5-0.5-0.7-0.7
		c-0.2-0.3-0.5-0.5-0.7-0.7c-0.2-0.3-0.5-0.5-0.7-0.7c-0.2-0.3-0.5-0.5-0.7-0.7c-0.2-0.3-0.5-0.5-0.7-0.7c-0.2-0.3-0.5-0.5-0.7-0.7
		c-0.2-0.3-0.5-0.5-0.7-0.7c-0.2-0.3-0.5-0.5-0.7-0.7c-0.2-0.3-0.5-0.5-0.7-0.7c-0.2-0.3-0.5-0.5-0.7-0.7c-0.2-0.3-0.5-0.5-0.7-0.7
		c-0.2-0.3-0.5-0.5-0.7-0.7c-14.5-12.5-23.6-30.9-23.6-51.2c-0.1-37.9,31.4-68.7,70.2-68.8l4.5,0c18.1,0.2,34.7,7.1,47,18.2
		c0.2,0.3,0.5,0.5,0.7,0.7c0.2,0.3,0.5,0.5,0.7,0.7c0.2,0.3,0.5,0.5,0.7,0.7c0.2,0.3,0.5,0.5,0.7,0.7c0.2,0.3,0.5,0.5,0.7,0.7
		c0.2,0.3,0.5,0.5,0.7,0.7c0.2,0.3,0.5,0.5,0.7,0.7c0.2,0.3,0.5,0.5,0.7,0.7c0.2,0.3,0.5,0.5,0.7,0.7c0.2,0.3,0.5,0.5,0.7,0.7
		c0.2,0.3,0.5,0.5,0.7,0.7c0.2,0.3,0.5,0.5,0.7,0.7c0.2,0.3,0.5,0.5,0.7,0.7c0.2,0.3,0.5,0.5,0.7,0.7c0.2,0.3,0.5,0.5,0.7,0.7
		c0.2,0.3,0.5,0.5,0.7,0.7c0.2,0.3,0.5,0.5,0.7,0.7c0.2,0.3,0.5,0.5,0.7,0.7c0.2,0.3,0.5,0.5,0.7,0.7c0.2,0.3,0.5,0.5,0.7,0.7
		c0.2,0.3,0.5,0.5,0.7,0.7c0.2,0.3,0.5,0.5,0.7,0.7c0.2,0.3,0.5,0.5,0.7,0.7c0.2,0.3,0.5,0.5,0.7,0.7c0.2,0.3,0.5,0.5,0.7,0.7
		c0.2,0.3,0.5,0.5,0.7,0.7c0.2,0.3,0.5,0.5,0.7,0.7c0.2,0.3,0.5,0.5,0.7,0.7c0.2,0.3,0.5,0.5,0.7,0.7c0.2,0.3,0.5,0.5,0.7,0.7
		c0.2,0.3,0.5,0.5,0.7,0.7c0.2,0.3,0.5,0.5,0.7,0.7c0.2,0.3,0.5,0.5,0.7,0.7c0.2,0.3,0.5,0.5,0.7,0.7c0.2,0.3,0.5,0.5,0.7,0.7
		c0.2,0.3,0.5,0.5,0.7,0.7c0.2,0.3,0.5,0.5,0.7,0.7c0.2,0.3,0.5,0.5,0.7,0.7c0.2,0.3,0.5,0.5,0.7,0.7c0.2,0.3,0.5,0.5,0.7,0.7
		c0.2,0.3,0.5,0.5,0.7,0.7c0.2,0.3,0.5,0.5,0.7,0.7c0.2,0.3,0.5,0.5,0.7,0.7c0.2,0.3,0.5,0.5,0.7,0.7c0.2,0.3,0.5,0.5,0.7,0.7
		c0.2,0.3,0.5,0.5,0.7,0.7c0.2,0.3,0.5,0.5,0.7,0.7c0.2,0.3,0.5,0.5,0.7,0.7c0.2,0.3,0.5,0.5,0.7,0.7c0.2,0.3,0.5,0.5,0.7,0.7
		c0.2,0.3,0.5,0.5,0.7,0.7c0.2,0.3,0.5,0.5,0.7,0.7c0.2,0.3,0.5,0.5,0.7,0.7c0.2,0.3,0.5,0.5,0.7,0.7c0.2,0.3,0.5,0.5,0.7,0.7
		c0.2,0.3,0.5,0.5,0.7,0.7c0.2,0.3,0.5,0.5,0.7,0.7c0.2,0.3,0.5,0.5,0.7,0.7c0.2,0.3,0.5,0.5,0.7,0.7c0.2,0.3,0.5,0.5,0.7,0.7
		c0.2,0.3,0.5,0.5,0.7,0.7c0.2,0.3,0.5,0.5,0.7,0.7c0.2,0.3,0.5,0.5,0.7,0.7c0.2,0.3,0.5,0.5,0.7,0.7c0.2,0.3,0.5,0.5,0.7,0.7
		c0.2,0.3,0.5,0.5,0.7,0.7c0.2,0.3,0.5,0.5,0.7,0.7c0.2,0.3,0.5,0.5,0.7,0.7c0.2,0.3,0.5,0.5,0.7,0.7c0.2,0.3,0.5,0.5,0.7,0.7
		c0.2,0.3,0.5,0.5,0.7,0.7c0.2,0.3,0.5,0.5,0.7,0.7c0.2,0.3,0.5,0.5,0.7,0.7c0.2,0.3,0.5,0.5,0.7,0.7c0.1,0.2,0.3,0.4,0.5,0.5
		l0.3-87.3c0-11-8.9-20-19.9-20.1l-177-0.5c-11,0-20,8.9-20.1,19.9l-0.5,177c0,11,8.9,20,19.9,20.1l107,0.3
		c-0.2-0.1-0.4-0.3-0.6-0.5C-904.8,483.8-905.1,483.6-905.3,483.4z"/>
	
		<linearGradient id="SVGID_1_" gradientUnits="userSpaceOnUse" x1="-964.6845" y1="482.0956" x2="-704.5476" y2="221.9587" gradientTransform="matrix(1 3.024497e-003 3.024497e-003 -1 -1.2748 808.7616)">
		<stop  offset="0" style="stop-color:#3C6F9A;stop-opacity:0.4"/>
		<stop  offset="1" style="stop-color:#000000;stop-opacity:0"/>
	</linearGradient>
	<path class="st2" d="M-814,464.8l0.3-89.7c-0.2-0.1-0.4-0.3-0.5-0.5c-0.2-0.2-0.5-0.4-0.7-0.7c-0.2-0.2-0.5-0.4-0.7-0.7
		c-0.2-0.2-0.5-0.4-0.7-0.7c-0.2-0.2-0.5-0.4-0.7-0.7c-0.2-0.2-0.5-0.4-0.7-0.7c-0.2-0.2-0.5-0.4-0.7-0.7c-0.2-0.2-0.5-0.4-0.7-0.7
		c-0.2-0.2-0.5-0.4-0.7-0.7c-0.2-0.2-0.5-0.4-0.7-0.7c-0.2-0.2-0.5-0.4-0.7-0.7c-0.2-0.2-0.5-0.4-0.7-0.7c-0.2-0.2-0.5-0.4-0.7-0.7
		c-0.2-0.2-0.5-0.4-0.7-0.7c-0.2-0.2-0.5-0.4-0.7-0.7c-0.2-0.2-0.5-0.4-0.7-0.7c-0.2-0.2-0.5-0.4-0.7-0.7c-0.2-0.2-0.5-0.4-0.7-0.7
		c-0.2-0.2-0.5-0.4-0.7-0.7c-0.2-0.2-0.5-0.4-0.7-0.7c-0.2-0.2-0.5-0.4-0.7-0.7c-0.2-0.2-0.5-0.4-0.7-0.7c-0.2-0.2-0.5-0.4-0.7-0.7
		c-0.2-0.2-0.5-0.4-0.7-0.7c-0.2-0.2-0.5-0.4-0.7-0.7c-0.2-0.2-0.5-0.4-0.7-0.7c-0.2-0.2-0.5-0.4-0.7-0.7c-0.2-0.2-0.5-0.4-0.7-0.7
		c-0.2-0.2-0.5-0.4-0.7-0.7c-0.2-0.2-0.5-0.4-0.7-0.7c-0.2-0.2-0.5-0.4-0.7-0.7c-0.2-0.2-0.5-0.4-0.7-0.7c-0.2-0.2-0.5-0.4-0.7-0.7
		c-0.2-0.2-0.5-0.4-0.7-0.7c-0.2-0.2-0.5-0.4-0.7-0.7c-0.2-0.2-0.5-0.4-0.7-0.7c-0.2-0.2-0.5-0.4-0.7-0.7c-0.2-0.2-0.5-0.4-0.7-0.7
		c-0.2-0.2-0.5-0.4-0.7-0.7c-0.2-0.2-0.5-0.4-0.7-0.7c-0.2-0.2-0.5-0.4-0.7-0.7c-0.2-0.2-0.5-0.4-0.7-0.7c-0.2-0.2-0.5-0.4-0.7-0.7
		c-0.2-0.2-0.5-0.4-0.7-0.7c-0.2-0.2-0.5-0.4-0.7-0.7c-0.2-0.2-0.5-0.4-0.7-0.7c-0.2-0.2-0.5-0.4-0.7-0.7c-0.2-0.2-0.5-0.4-0.7-0.7
		c-0.2-0.2-0.5-0.4-0.7-0.7c-0.2-0.2-0.5-0.4-0.7-0.7c-0.2-0.2-0.5-0.4-0.7-0.7c-0.2-0.2-0.5-0.4-0.7-0.7c-0.2-0.2-0.5-0.4-0.7-0.7
		c-0.2-0.2-0.5-0.4-0.7-0.7c-0.2-0.2-0.5-0.4-0.7-0.7c-0.2-0.2-0.5-0.4-0.7-0.7c-0.2-0.2-0.5-0.4-0.7-0.7c-0.2-0.2-0.5-0.4-0.7-0.7
		c-0.2-0.2-0.5-0.4-0.7-0.7c-0.2-0.2-0.5-0.4-0.7-0.7c-0.2-0.2-0.5-0.4-0.7-0.7c-0.2-0.2-0.5-0.4-0.7-0.7c-0.2-0.2-0.5-0.4-0.7-0.7
		c-0.2-0.2-0.5-0.4-0.7-0.7c-0.2-0.2-0.5-0.4-0.7-0.7c-0.2-0.2-0.5-0.4-0.7-0.7c-0.2-0.2-0.5-0.4-0.7-0.7c-0.2-0.2-0.5-0.4-0.7-0.7
		c-0.2-0.2-0.5-0.4-0.7-0.7c-0.2-0.2-0.5-0.4-0.7-0.7c-0.2-0.2-0.5-0.4-0.7-0.7c-0.2-0.2-0.5-0.4-0.7-0.7c-0.2-0.2-0.5-0.4-0.7-0.7
		c-0.2-0.2-0.5-0.4-0.7-0.7c-0.2-0.2-0.5-0.4-0.7-0.7c-12.4-11.1-28.9-18.1-47-18.2l-4.5,0c-38.8,0.1-70.3,30.9-70.2,68.8
		c0,20.3,9.2,38.6,23.6,51.2c0.2,0.2,0.5,0.4,0.7,0.7c0.2,0.2,0.5,0.4,0.7,0.7c0.2,0.2,0.5,0.4,0.7,0.7c0.2,0.2,0.5,0.4,0.7,0.7
		c0.2,0.2,0.5,0.4,0.7,0.7c0.2,0.2,0.5,0.4,0.7,0.7c0.2,0.2,0.5,0.4,0.7,0.7c0.2,0.2,0.5,0.4,0.7,0.7c0.2,0.2,0.5,0.4,0.7,0.7
		c0.2,0.2,0.5,0.4,0.7,0.7c0.2,0.2,0.5,0.4,0.7,0.7c0.2,0.2,0.5,0.4,0.7,0.7c0.2,0.2,0.5,0.4,0.7,0.7c0.2,0.2,0.5,0.4,0.7,0.7
		c0.2,0.2,0.5,0.4,0.7,0.7c0.2,0.2,0.5,0.4,0.7,0.7c0.2,0.2,0.5,0.4,0.7,0.7c0.2,0.2,0.5,0.4,0.7,0.7c0.2,0.2,0.5,0.4,0.7,0.7
		c0.2,0.2,0.5,0.4,0.7,0.7c0.2,0.2,0.5,0.4,0.7,0.7c0.2,0.2,0.5,0.4,0.7,0.7c0.2,0.2,0.5,0.4,0.7,0.7c0.2,0.2,0.5,0.4,0.7,0.7
		c0.2,0.2,0.5,0.4,0.7,0.7c0.2,0.2,0.5,0.4,0.7,0.7c0.2,0.2,0.5,0.4,0.7,0.7c0.2,0.2,0.5,0.4,0.7,0.7c0.2,0.2,0.5,0.4,0.7,0.7
		c0.2,0.2,0.5,0.4,0.7,0.7c0.2,0.2,0.5,0.4,0.7,0.7c0.2,0.2,0.5,0.4,0.7,0.7c0.2,0.2,0.5,0.4,0.7,0.7c0.2,0.2,0.5,0.4,0.7,0.7
		c0.2,0.2,0.5,0.4,0.7,0.7c0.2,0.2,0.5,0.4,0.7,0.7c0.2,0.2,0.5,0.4,0.7,0.7c0.2,0.2,0.5,0.4,0.7,0.7c0.2,0.2,0.5,0.4,0.7,0.7
		c0.2,0.2,0.5,0.4,0.7,0.7c0.2,0.2,0.5,0.4,0.7,0.7c0.2,0.2,0.5,0.4,0.7,0.7c0.2,0.2,0.5,0.4,0.7,0.7c0.2,0.2,0.5,0.4,0.7,0.7
		c0.2,0.2,0.5,0.4,0.7,0.7c0.2,0.2,0.5,0.4,0.7,0.7c0.2,0.2,0.5,0.4,0.7,0.7c0.2,0.2,0.5,0.4,0.7,0.7c0.2,0.2,0.5,0.4,0.7,0.7
		c0.2,0.2,0.5,0.4,0.7,0.7c0.2,0.2,0.5,0.4,0.7,0.7c0.2,0.2,0.5,0.4,0.7,0.7c0.2,0.2,0.5,0.4,0.7,0.7c0.2,0.2,0.5,0.4,0.7,0.7
		c0.2,0.2,0.5,0.4,0.7,0.7c0.2,0.2,0.5,0.4,0.7,0.7c0.2,0.2,0.5,0.4,0.7,0.7c0.2,0.2,0.5,0.4,0.7,0.7c0.2,0.2,0.5,0.4,0.7,0.7
		c0.2,0.2,0.5,0.4,0.7,0.7c0.2,0.2,0.5,0.4,0.7,0.7c0.2,0.2,0.5,0.4,0.7,0.7c0.2,0.2,0.5,0.4,0.7,0.7c0.2,0.2,0.5,0.4,0.7,0.7
		c0.2,0.2,0.5,0.4,0.7,0.7c0.2,0.2,0.5,0.4,0.7,0.7c0.2,0.2,0.5,0.4,0.7,0.7c0.2,0.2,0.5,0.4,0.7,0.7c0.2,0.2,0.5,0.4,0.7,0.7
		c0.2,0.2,0.5,0.4,0.7,0.7c0.2,0.2,0.5,0.4,0.7,0.7c0.2,0.2,0.5,0.4,0.7,0.7c0.2,0.2,0.5,0.4,0.7,0.7c0.2,0.2,0.5,0.4,0.7,0.7
		c0.2,0.2,0.5,0.4,0.7,0.7c0.2,0.2,0.5,0.4,0.7,0.7c0.2,0.2,0.5,0.4,0.7,0.7c0.2,0.2,0.5,0.4,0.7,0.7c0.2,0.2,0.5,0.4,0.7,0.7
		c0.2,0.2,0.5,0.4,0.7,0.7c0.2,0.2,0.5,0.4,0.7,0.7c0.2,0.2,0.5,0.4,0.7,0.7c0.2,0.2,0.5,0.4,0.7,0.7c0.2,0.2,0.5,0.4,0.7,0.7
		c0.2,0.2,0.5,0.4,0.7,0.7c0.2,0.2,0.4,0.4,0.6,0.5l70,0.2C-823,484.8-814,475.8-814,464.8z"/>
</g>
<g>
	
		<image style="overflow:visible;opacity:0.5;enable-background:new    ;" width="171" height="172" xlink:href="EF6B6B17.png"  transform="matrix(1 0 0 1 -998.3333 292.1667)">
	</image>
	<g>
		<g>
			<g>
				
					<linearGradient id="SVGID_2_" gradientUnits="userSpaceOnUse" x1="-970.61" y1="318.3031" x2="-867.1697" y2="421.7433" gradientTransform="matrix(1 0 0 1 0 2)">
					<stop  offset="0.47" style="stop-color:#F2F2F2"/>
					<stop  offset="1" style="stop-color:#E4E4E4"/>
				</linearGradient>
				<path class="st3" d="M-919.2,303.4c-37.9,0.2-68.5,31.1-68.3,69s31.1,68.5,69,68.3c37.9-0.2,68.5-31.1,68.3-69
					c-0.2-37.6-30.7-68.1-68.3-68.3H-919.2L-919.2,303.4z M-918.9,303.4v137.3 M-850.2,372.1h-137.3 M-972,329.9
					c31.8,22.7,74.5,22.7,106.3,0 M-865.7,414.4c-31.8-22.7-74.5-22.7-106.3,0 M-924.2,305.2c-37.1,31.4-41.8,86.9-10.5,124.1
					c3.2,3.8,6.7,7.3,10.5,10.5 M-913.6,439.7c37.1-31.4,41.8-86.9,10.5-124.1c-3.2-3.8-6.7-7.3-10.5-10.5"/>
			</g>
		</g>
	</g>
</g>
<g>
	<g>
		
			<linearGradient id="SVGID_3_" gradientUnits="userSpaceOnUse" x1="-882.2119" y1="433.2409" x2="-955.3667" y2="306.5327" gradientTransform="matrix(1 0 0 1 0 2)">
			<stop  offset="0.475" style="stop-color:#E4E4E4"/>
			<stop  offset="1" style="stop-color:#F2F2F2"/>
		</linearGradient>
		<path class="st4" d="M-919.1,303.2c-37.9,0.2-68.5,31.1-68.3,69s31.1,68.5,69,68.3c37.9-0.2,68.5-31.1,68.3-69
			c-0.2-37.6-30.7-68.1-68.3-68.3H-919.1L-919.1,303.2z M-918.8,303.2v137.3 M-850.1,371.9h-137.3"/>
	</g>
</g>
</svg>
