<?xml version="1.0" encoding="utf-8"?>
<!-- Generator: Adobe Illustrator 19.1.1, SVG Export Plug-In . SVG Version: 6.00 Build 0)  -->
<svg version="1.1" id="Layer_1" xmlns="http://www.w3.org/2000/svg" xmlns:xlink="http://www.w3.org/1999/xlink" x="0px" y="0px"
	 viewBox="530.7 66.3 217 217" style="enable-background:new 530.7 66.3 217 217;" xml:space="preserve">
<style type="text/css">
	.st0{fill:#487CA8;}
	.st1{fill:#3C6F9A;}
	.st2{fill:#E2E2E2;}
	.st3{fill:#FFFFFF;}
</style>
<path class="st0" d="M727.7,283.3h-177c-11,0-20-9-20-20v-177c0-11,9-20,20-20h177c11,0,20,9,20,20v177
	C747.7,274.3,738.7,283.3,727.7,283.3z"/>
<path class="st1" d="M747,157.4c-7.3-7.3-7.5-7.3-7.5-7.3c-0.2-0.2-0.5-0.4-0.7-0.6s-0.5-0.4-0.7-0.6c-0.2-0.2-0.5-0.4-0.7-0.6
	s-0.5-0.4-0.7-0.6c-0.2-0.2-0.5-0.4-0.7-0.6c-0.2-0.2-0.5-0.4-0.7-0.6c-0.2-0.2-0.5-0.4-0.7-0.6c-0.2-0.2-0.5-0.4-0.7-0.6
	s-0.5-0.4-0.7-0.6c-0.2-0.2-0.5-0.4-0.7-0.6s-0.5-0.4-0.7-0.6c-0.2-0.2-0.5-0.4-0.7-0.6s-0.5-0.4-0.7-0.6c-0.2-0.2-0.5-0.4-0.7-0.6
	s-0.5-0.4-0.7-0.6c-0.2-0.2-0.5-0.4-0.7-0.6c-0.2-0.2-0.5-0.4-0.7-0.6c-0.2-0.2-0.5-0.4-0.7-0.6c-0.2-0.2-0.5-0.4-0.7-0.6
	s-0.5-0.4-0.7-0.6c-0.2-0.2-0.5-0.4-0.7-0.6s-0.5-0.4-0.7-0.6c-0.2-0.2-0.5-0.4-0.7-0.6s-0.5-0.4-0.7-0.6c-0.2-0.2-0.5-0.4-0.7-0.6
	s-0.5-0.4-0.7-0.6c-0.2-0.2-0.5-0.4-0.7-0.6c-0.2-0.2-0.5-0.4-0.7-0.6c-0.2-0.2-0.5-0.4-0.7-0.6c-0.2-0.2-0.5-0.4-0.7-0.6
	s-0.5-0.4-0.7-0.6c-0.2-0.2-0.5-0.4-0.7-0.6s-0.5-0.4-0.7-0.6c-0.2-0.2-0.5-0.4-0.7-0.6s-0.5-0.4-0.7-0.6s-0.5-0.4-0.7-0.6
	s-0.5-0.4-0.7-0.6c-0.2-0.2-0.5-0.4-0.7-0.6c-0.2-0.2-0.5-0.4-0.7-0.6c-0.2-0.2-0.5-0.4-0.7-0.6c-0.2-0.2-0.5-0.4-0.7-0.6
	s-0.5-0.4-0.7-0.6c-0.2-0.2-0.5-0.4-0.7-0.6s-0.5-0.4-0.7-0.6c-0.2-0.2-0.5-0.4-0.7-0.6c-0.2-0.2-0.5-0.4-0.7-0.6s-0.5-0.4-0.7-0.6
	c-0.2-0.2-0.5-0.4-0.7-0.6c-0.2-0.2-0.5-0.4-0.7-0.6c-0.2-0.2-0.5-0.4-0.7-0.6c-0.2-0.2-0.5-0.4-0.7-0.6c-0.2-0.2-0.5-0.4-0.7-0.6
	s-0.5-0.4-0.7-0.6s-0.5-0.4-0.7-0.6s-0.5-0.4-0.7-0.6s-0.5-0.4-0.7-0.6c-0.2-0.2-0.5-0.4-0.7-0.6s-0.5-0.4-0.7-0.6
	c-0.2-0.2-0.5-0.4-0.7-0.6c-0.2-0.2-0.5-0.4-0.7-0.6c-0.2-0.2-0.5-0.4-0.7-0.6c-0.2-0.2-0.5-0.4-0.7-0.6c-0.2-0.2-0.5-0.4-0.7-0.6
	s-0.5-0.4-0.7-0.6s-0.5-0.4-0.7-0.6c-0.2-0.2-0.5-0.4-0.7-0.6s-0.5-0.4-0.7-0.6c-0.2-0.2-0.5-0.4-0.7-0.6s-0.5-0.4-0.7-0.6
	c-0.2-0.2-0.5-0.4-0.7-0.6c-0.2-0.2-0.5-0.4-0.7-0.6c-0.2-0.2-0.5-0.4-0.7-0.6c-0.2-0.2-0.5-0.4-0.7-0.6s-0.5-0.4-0.7-0.6
	c-4.5-4.5-12.1-5.1-17.3,0.1c-14.1,14.3-28.4,28.3-42.8,42.4c-2.4,2.3-2.4,2.3-0.3,4.9c0.5,0.6,0.8,1,1.1,1.1
	c0.3,0.4,0.5,0.6,0.7,0.7c0.3,0.4,0.5,0.6,0.7,0.7c0.3,0.4,0.5,0.6,0.7,0.7c0.3,0.4,0.5,0.6,0.7,0.7c0.3,0.4,0.5,0.6,0.7,0.7
	c0.3,0.4,0.5,0.6,0.7,0.7c0.3,0.4,0.5,0.6,0.7,0.7c0,0.1,0.1,0.1,0.1,0.2s-0.1,0.1-0.1,0.2c-0.1-0.1-0.2-0.1-0.3-0.2
	c-0.2-0.2-0.5-0.5-0.7-0.7c-0.2-0.2-0.5-0.5-0.7-0.7c-0.2-0.2-0.5-0.5-0.7-0.7c-0.2-0.2-0.5-0.5-0.7-0.7c-0.2-0.2-0.5-0.5-0.7-0.7
	c-0.2-0.2-0.5-0.5-0.7-0.7c-0.2-0.2-0.5-0.5-0.7-0.7c-0.2-0.2-0.5-0.5-0.7-0.7c-0.2-0.2-0.5-0.5-0.7-0.7c-0.2-0.2-0.5-0.5-0.7-0.7
	c-0.2-0.2-0.5-0.5-0.7-0.7c-0.2-0.2-0.5-0.5-0.7-0.7c-0.2-0.2-0.5-0.5-0.7-0.7c-0.2-0.2-0.5-0.5-0.7-0.7c-0.2-0.2-0.5-0.5-0.7-0.7
	c-0.2-0.2-0.5-0.5-0.7-0.7c-0.2-0.2-0.5-0.5-0.7-0.7c-0.2-0.2-0.5-0.5-0.7-0.7c-0.2-0.2-0.5-0.5-0.7-0.7c-0.2-0.2-0.5-0.5-0.7-0.7
	c-0.2-0.2-0.5-0.5-0.7-0.7c-0.2-0.2-0.5-0.5-0.7-0.7c-0.2-0.2-0.5-0.5-0.7-0.7c-0.2-0.2-0.5-0.5-0.7-0.7c-0.2-0.2-0.5-0.5-0.7-0.7
	c-0.2-0.2-0.5-0.5-0.7-0.7c-0.2-0.2-0.5-0.5-0.7-0.7c-0.2-0.2-0.5-0.5-0.7-0.7c-0.2-0.2-0.5-0.5-0.7-0.7c-0.2-0.2-0.5-0.5-0.7-0.7
	c-0.2-0.2-0.5-0.5-0.7-0.7c-0.2-0.2-0.5-0.5-0.7-0.7c-0.2-0.2-0.5-0.5-0.7-0.7c-0.2-0.2-0.5-0.5-0.7-0.7c-0.2-0.2-0.5-0.5-0.7-0.7
	c-0.2-0.2-0.5-0.5-0.7-0.7c-0.2-0.2-0.5-0.5-0.7-0.7c-0.2-0.2-0.5-0.5-0.7-0.7c-0.2-0.2-0.5-0.5-0.7-0.7c-0.2-0.2-0.5-0.5-0.7-0.7
	c-0.2-0.2-0.5-0.5-0.7-0.7c-0.2-0.2-0.5-0.5-0.7-0.7c-0.2-0.2-0.5-0.5-0.7-0.7c-0.2-0.2-0.5-0.5-0.7-0.7c-0.2-0.2-0.5-0.5-0.7-0.7
	c-0.2-0.2-0.5-0.5-0.7-0.7c-0.2-0.2-0.5-0.5-0.7-0.7c-0.2-0.2-0.5-0.5-0.7-0.7c-0.2-0.2-0.5-0.5-0.7-0.7c-0.2-0.2-0.5-0.5-0.7-0.7
	c-0.2-0.2-0.5-0.5-0.7-0.7c-0.2-0.2-0.5-0.5-0.7-0.7c-0.2-0.2-0.5-0.5-0.7-0.7c-4.4-4.2-9.9-5.9-16.1-6.2c-0.3,0-0.6,0-0.9,0
	c-8.2,0.2-12.8,6.1-10.9,14c1.4,5.4,4.3,10,8.5,13.7c0.1,0.1,0.2,0.2,0.4,0.3c0.1,0.1,0.2,0.2,0.4,0.4c0.1,0.1,0.2,0.2,0.4,0.3
	c0.1,0.1,0.2,0.2,0.4,0.4c0.1,0.1,0.2,0.2,0.4,0.3c0.1,0.1,0.2,0.2,0.4,0.4c0.1,0.1,0.2,0.2,0.4,0.3c0.1,0.1,0.2,0.2,0.4,0.4
	c0.1,0.1,0.2,0.2,0.4,0.3c0.1,0.1,0.2,0.2,0.4,0.4c0.1,0.1,0.2,0.2,0.4,0.3c0.1,0.1,0.2,0.2,0.4,0.4c0.1,0.1,0.2,0.2,0.4,0.3
	c0.1,0.1,0.2,0.2,0.4,0.4c0.1,0.1,0.2,0.2,0.4,0.3c0.1,0.1,0.2,0.2,0.4,0.4c0.1,0.1,0.2,0.2,0.4,0.3c0.1,0.1,0.2,0.2,0.4,0.4
	c0.1,0.1,0.2,0.2,0.4,0.3c0.1,0.1,0.2,0.2,0.4,0.4c0.1,0.1,0.2,0.2,0.4,0.3c0.1,0.1,0.2,0.2,0.4,0.4c0.1,0.1,0.2,0.2,0.4,0.3
	c0.1,0.1,0.2,0.2,0.4,0.4c0.1,0.1,0.2,0.2,0.4,0.3c0.1,0.1,0.2,0.2,0.4,0.4c0.1,0.1,0.2,0.2,0.4,0.3c0.1,0.1,0.2,0.2,0.4,0.4
	c0.1,0.1,0.2,0.2,0.4,0.3c0.1,0.1,0.2,0.2,0.4,0.4c0.1,0.1,0.2,0.2,0.4,0.3c0.1,0.1,0.2,0.2,0.4,0.4c0.1,0.1,0.2,0.2,0.4,0.3
	c0.1,0.1,0.2,0.2,0.4,0.4c0.1,0.1,0.2,0.2,0.4,0.3c0.1,0.1,0.2,0.2,0.4,0.4c0.1,0.1,0.2,0.2,0.4,0.3c0.1,0.1,0.2,0.2,0.4,0.4
	c0.1,0.1,0.2,0.2,0.4,0.3c0.1,0.1,0.2,0.2,0.4,0.4c0.1,0.1,0.2,0.2,0.4,0.3c0.1,0.1,0.2,0.2,0.4,0.4c0.1,0.1,0.2,0.2,0.4,0.3
	c0.1,0.1,0.2,0.2,0.4,0.4c0.1,0.1,0.2,0.2,0.4,0.3c0.1,0.1,0.2,0.2,0.4,0.4c0.1,0.1,0.2,0.2,0.4,0.3c0.1,0.1,0.2,0.2,0.4,0.4
	c0.1,0.1,0.2,0.2,0.4,0.3c0.1,0.1,0.2,0.2,0.4,0.4c0.1,0.1,0.2,0.2,0.4,0.3c0.1,0.1,0.2,0.2,0.4,0.4c0.1,0.1,0.2,0.2,0.4,0.3
	c0.1,0.1,0.2,0.2,0.4,0.4c0.1,0.1,0.2,0.2,0.4,0.3c0.1,0.1,0.2,0.2,0.4,0.4c0.1,0.1,0.2,0.2,0.4,0.3c0.1,0.1,0.2,0.2,0.4,0.4
	c0.1,0.1,0.2,0.2,0.4,0.3c0.1,0.1,0.2,0.2,0.4,0.4c0.1,0.1,0.2,0.2,0.4,0.3c0.1,0.1,0.2,0.2,0.4,0.4c0.1,0.1,0.2,0.2,0.4,0.3
	c0.1,0.1,0.2,0.2,0.4,0.4c0.1,0.1,0.2,0.2,0.4,0.3c0.1,0.1,0.2,0.2,0.4,0.4c0.1,0.1,0.2,0.2,0.4,0.3c0.1,0.1,0.2,0.2,0.4,0.4
	c0.1,0.1,0.2,0.2,0.4,0.3c0.1,0.1,0.2,0.2,0.4,0.4c0.1,0.1,0.2,0.2,0.4,0.3c0.1,0.1,0.2,0.2,0.4,0.4c0.1,0.1,0.2,0.2,0.4,0.3
	c0.1,0.1,0.2,0.2,0.4,0.4c0.1,0.1,0.2,0.2,0.4,0.3c0.1,0.1,0.2,0.2,0.4,0.4c0.1,0.1,0.2,0.2,0.4,0.3c0.1,0.1,0.2,0.2,0.4,0.4
	c0.1,0.1,0.2,0.2,0.4,0.3c0.1,0.1,0.2,0.2,0.4,0.4c0.1,0.1,0.2,0.2,0.4,0.3c0.1,0.1,0.2,0.2,0.4,0.4c0.1,0.1,0.2,0.2,0.4,0.3
	c0.1,0.1,0.2,0.2,0.4,0.4c0.1,0.1,0.2,0.2,0.4,0.3c0.1,0.1,0.2,0.2,0.4,0.4c0.1,0.1,0.2,0.2,0.4,0.3c0.1,0.1,0.2,0.2,0.4,0.4
	c0.1,0.1,0.2,0.2,0.4,0.3c0.1,0.1,0.2,0.2,0.4,0.4c0.1,0.1,0.2,0.2,0.4,0.3c0.1,0.1,0.2,0.2,0.4,0.4c0.1,0.1,0.2,0.2,0.4,0.3
	c0.1,0.1,0.2,0.2,0.4,0.4c0.1,0.1,0.2,0.2,0.4,0.3c0.1,0.1,0.2,0.2,0.4,0.4c0.1,0.1,0.2,0.2,0.4,0.3c0.1,0.1,0.2,0.2,0.4,0.4
	c0.1,0.1,0.2,0.2,0.4,0.3c0.1,0.1,0.2,0.2,0.4,0.4c0.1,0.1,0.2,0.2,0.4,0.3c0.1,0.1,0.2,0.2,0.4,0.4c0.1,0.1,0.2,0.2,0.4,0.3
	c0.1,0.1,0.2,0.2,0.4,0.4c0.1,0.1,0.2,0.2,0.4,0.3c0.1,0.1,0.2,0.2,0.4,0.4c0.1,0.1,0.2,0.2,0.4,0.3c0.1,0.1,0.2,0.2,0.4,0.4
	c0.1,0.1,0.2,0.2,0.4,0.3c0.1,0.1,0.2,0.2,0.4,0.4c0.1,0.1,0.2,0.2,0.4,0.3c0.1,0.1,0.2,0.2,0.4,0.4c0.1,0.1,0.2,0.2,0.4,0.3
	c0.1,0.1,0.2,0.2,0.4,0.4c0.1,0.1,0.2,0.2,0.4,0.3c0.1,0.1,0.2,0.2,0.4,0.4c0.1,0.1,0.2,0.2,0.4,0.3c0.1,0.1,0.2,0.2,0.4,0.4
	c0.1,0.1,0.2,0.2,0.4,0.3c0.1,0.1,0.2,0.2,0.4,0.4c0.1,0.1,0.2,0.2,0.4,0.3c0.1,0.1,0.2,0.2,0.4,0.4c0.1,0.1,0.2,0.2,0.4,0.3
	c0.1,0.1,0.2,0.2,0.4,0.4c0.1,0.1,0.2,0.2,0.4,0.3c0.1,0.1,0.2,0.2,0.4,0.4c0.1,0.1,0.2,0.2,0.4,0.3c0.1,0.1,0.2,0.2,0.4,0.4
	c0.1,0.1,0.2,0.2,0.4,0.3c0.1,0.1,0.2,0.2,0.4,0.4c0.1,0.1,0.2,0.2,0.4,0.3c0.1,0.1,0.2,0.2,0.4,0.4c0.1,0.1,0.2,0.2,0.4,0.3
	c0.1,0.1,0.2,0.2,0.4,0.4c0.1,0.1,0.2,0.2,0.4,0.3c0.1,0.1,0.2,0.2,0.4,0.4c0.1,0.1,0.2,0.2,0.4,0.3c0.1,0.1,0.2,0.2,0.4,0.4
	c0.1,0.1,0.2,0.2,0.4,0.3c0.1,0.1,0.2,0.2,0.4,0.4c0.1,0.1,0.2,0.2,0.4,0.3c0.1,0.1,0.2,0.2,0.4,0.4c0.1,0.1,0.2,0.2,0.4,0.3
	c0.1,0.1,0.2,0.2,0.4,0.4c0.1,0.1,0.2,0.2,0.4,0.3c0.1,0.1,0.2,0.2,0.4,0.4c0.1,0.1,0.2,0.2,0.4,0.3c0.1,0.1,0.2,0.2,0.4,0.4
	c0.1,0.1,0.2,0.2,0.4,0.3c0.1,0.1,0.2,0.2,0.4,0.4c0.1,0.1,0.2,0.2,0.4,0.3c0.1,0.1,0.2,0.2,0.4,0.4c0.1,0.1,0.2,0.2,0.4,0.3
	c0.1,0.1,0.2,0.2,0.4,0.4c0.1,0.1,0.2,0.2,0.4,0.3c0.1,0.1,0.2,0.2,0.4,0.4c0.1,0.1,0.2,0.2,0.4,0.3l0.1,0.1
	c-2.2-1.5-4.4-2.8-6.6-4.3c-0.7-0.4-1.1-0.5-1.6-0.1c-0.1-0.1-0.2-0.2-0.4-0.4c-0.1-0.1-0.2-0.1-0.3-0.2c-0.1-0.2-0.2-0.3-0.5-0.5
	c-0.1-0.1-0.2-0.1-0.3-0.2s-0.2-0.3-0.4-0.5c-0.1-0.1-0.2-0.1-0.3-0.2s-0.2-0.3-0.4-0.5c-0.1-0.1-0.2-0.1-0.3-0.2
	c-0.1-0.1-0.2-0.3-0.4-0.5c-0.1-0.1-0.2-0.1-0.3-0.2c-0.1-0.2-0.2-0.3-0.5-0.5c-0.1-0.1-0.2-0.1-0.3-0.2s-0.2-0.3-0.4-0.5
	c-0.1-0.1-0.2-0.1-0.3-0.2c-0.1-0.1-0.2-0.3-0.4-0.5c-2.5-1.8-4.9-3.7-7.4-5.5c-0.6-0.4-1-0.5-1.4-0.2l-0.1-0.1
	c-0.2-0.2-0.4-0.4-0.7-0.7c-0.2-0.2-0.4-0.4-0.7-0.7c-0.2-0.2-0.4-0.4-0.7-0.7c-0.2-0.2-0.4-0.4-0.7-0.7c-0.2-0.2-0.4-0.4-0.7-0.7
	c-0.2-0.2-0.4-0.4-0.7-0.7c-0.2-0.2-0.4-0.4-0.7-0.7c-0.2-0.2-0.4-0.4-0.7-0.7c-0.4-0.4-1.1-1-2-1.6c-0.9-0.7-1.4-0.6-2.1,0.2
	c-2.4,2.3-4.7,4.7-7.1,7c-0.7,0.7-1.2,1.5-1.6,2.3c-5.3,12.2-10.7,24.4-16,36.7c-1.6,3.7-3.1,7.3-4.6,11c-0.8,1.8,0.1,4,1.7,5.1
	c0.2,0.3,0.5,0.5,0.7,0.7c0.2,0.3,0.5,0.5,0.7,0.7c0.2,0.3,0.5,0.5,0.7,0.7c0.2,0.3,0.5,0.5,0.7,0.7c0.2,0.3,0.5,0.5,0.7,0.7
	c0.2,0.3,0.5,0.5,0.7,0.7c0.2,0.3,0.5,0.5,0.7,0.7c0.2,0.3,0.5,0.5,0.7,0.7c0.2,0.3,0.5,0.5,0.7,0.7c0.2,0.3,0.5,0.5,0.7,0.7
	c0.2,0.3,0.5,0.5,0.7,0.7c0.2,0.3,0.5,0.5,0.7,0.7c0.2,0.3,0.5,0.5,0.7,0.7c0.2,0.3,0.5,0.5,0.7,0.7c0.2,0.3,0.5,0.5,0.7,0.7
	c0.2,0.3,0.5,0.5,0.7,0.7c0.2,0.3,0.5,0.5,0.7,0.7c0.2,0.3,0.5,0.5,0.7,0.7c0.2,0.3,0.5,0.5,0.7,0.7c0.2,0.3,0.5,0.5,0.7,0.7
	c0.2,0.3,0.5,0.5,0.7,0.7c0.2,0.3,0.5,0.5,0.7,0.7c0.2,0.3,0.5,0.5,0.7,0.7c0.2,0.3,0.5,0.5,0.7,0.7c0.2,0.3,0.5,0.5,0.7,0.7
	c0.2,0.3,0.5,0.5,0.7,0.7c0.2,0.3,0.5,0.5,0.7,0.7c0.2,0.3,0.5,0.5,0.7,0.7c0.2,0.3,0.5,0.5,0.7,0.7c0.2,0.3,0.5,0.5,0.7,0.7
	c0.2,0.3,0.5,0.5,0.7,0.7c0.2,0.3,0.5,0.5,0.7,0.7c0.2,0.3,0.5,0.5,0.7,0.7c0.2,0.3,0.5,0.5,0.7,0.7c0.2,0.3,0.5,0.5,0.7,0.7
	c0.2,0.3,0.5,0.5,0.7,0.7c0.2,0.3,0.5,0.5,0.7,0.7c0.2,0.3,0.5,0.5,0.7,0.7c0.2,0.3,0.5,0.5,0.7,0.7c0.2,0.3,0.5,0.5,0.7,0.7
	c0.2,0.3,0.5,0.5,0.7,0.7c0.2,0.3,0.5,0.5,0.7,0.7c0.2,0.3,0.5,0.5,0.7,0.7c0.2,0.3,0.5,0.5,0.7,0.7c0.2,0.3,0.5,0.5,0.7,0.7
	c0.2,0.3,0.5,0.5,0.7,0.7c0.2,0.3,0.5,0.5,0.7,0.7c0.2,0.3,0.5,0.5,0.7,0.7c0.2,0.3,0.5,0.5,0.7,0.7c0.2,0.3,0.5,0.5,0.7,0.7
	c0.2,0.3,0.5,0.5,0.7,0.7c0.2,0.3,0.5,0.5,0.7,0.7c0.2,0.3,0.5,0.5,0.7,0.7c0.2,0.3,0.5,0.5,0.7,0.7c0.2,0.3,0.5,0.5,0.7,0.7
	c0.2,0.3,0.5,0.5,0.7,0.7c0.2,0.3,0.5,0.5,0.7,0.7c0.2,0.3,0.5,0.5,0.7,0.7c0.2,0.3,0.5,0.5,0.7,0.7c0.2,0.3,0.5,0.5,0.7,0.7
	c0.2,0.3,0.5,0.5,0.7,0.7c0.2,0.3,0.5,0.5,0.7,0.7c0.2,0.3,0.5,0.5,0.7,0.7c0.2,0.3,0.5,0.3,0.7,0.5c0.1,0.2,0.3,0.3,0.5,0.3h102.8
	c10.8,0,19.9-8.4,19.9-19.1V157.9C746.7,157.7,747.2,157.6,747,157.4z"/>
<g>
	
		<image style="overflow:visible;opacity:0.5;enable-background:new    ;" width="163" height="160" xlink:href="../../../../Dropbox/Portfolio/ADEB3750.png"  transform="matrix(1 0 0 1 565 95)">
	</image>
	<g>
		<g>
			<path class="st2" d="M652.8,190.4c0.4-1,1.1-1.7,1.8-2.4c1-0.9,1-1.7,0.2-2.7c-2.1-3-3.9-6.1-6-9.1c-0.9-1.2-0.8-1.9,0.3-2.9
				c16.4-15.9,32.7-31.9,49.1-47.8c0.2-0.2,0.5-0.5,0.7-0.7c2.9-3,2.8-1.8,0.4-5.3c-0.6-0.8-1.3-1.6-1.8-2.5
				c-0.5-0.6-0.9-0.7-1.4-0.1c-0.3,0.3-0.6,0.6-0.9,0.9c-16.6,16.6-33.2,33.2-49.8,49.8c-1.5,1.5-1.5,1.5-2.8-0.2
				c-1.5-2-3-4.1-4.7-6.1c-1-1.2-1-1.9,0.2-3c14.4-14.3,28.8-28.7,43.2-43.1c2.2-2.2,4.4-4.4,6.6-6.6c0.8-0.8,0.8-1.3-0.2-2
				c-1-0.6-2-1.1-3.1-1.4c-1.7-0.5-3.1-0.2-4.4,1.2c-15.4,15.5-30.9,30.9-46.3,46.4c-1.4,1.4-1.4,1.4-2.6-0.1
				c-2.2-2.7-2.2-2.7,0.3-5.1c14.5-14.6,29.2-29,43.6-43.7c5.3-5.5,13-4.7,17.6-0.1c5.8,5.9,11.8,11.6,17.6,17.5
				c4.8,4.8,4.7,10.9,0,15.7c-17.3,17.3-34.5,34.6-51.8,52C656.7,190.7,654.6,189.8,652.8,190.4z"/>
			<path class="st3" d="M581.8,116.3c6.9,0.4,13,2.5,17.7,7.8c16.2,18.4,31.9,37.2,45.9,57.4c0.7,1.1,1.4,2.2,2.1,3.2
				c0.6,0.9,0.6,1.5-0.2,2.3c-1.9,1.9-3.7,3.8-5.5,5.8c-0.8,0.9-1.4,0.9-2.4,0.3c-6.4-4.1-12.6-8.6-18.6-13.3
				c-14.5-11.2-28.7-22.7-42.3-35c-4.3-3.8-7.3-8.5-8.7-14.1c-2-8.1,2.8-14.2,11.1-14.4C581.2,116.3,581.5,116.3,581.8,116.3z"/>
			<path class="st3" d="M676.6,241c-8,0-15.3-1.9-21.3-7.4c-5-4.6-7.8-10.4-9.7-16.8c-1.1-3.7-2.1-7.3-1.2-11.3
				c1.3-5.5,3.9-8.3,9.4-9.1c11.2-1.7,20.2,2.3,26.9,11.4c1.6,2.2,2.8,4.6,4.5,6.7c0.9,1.1,1.8,2.2,2.8,3.2c5,5,10.8,6.4,17.4,3.9
				c0.8-0.3,1.7-0.6,2.5-0.9c1-0.3,1.3,0.1,1,1.1c-0.2,0.6-0.5,1.3-0.9,1.9c-3.4,5.3-7.5,10-12.5,13.8c-2,1.5-4.1,2.4-6.6,2.5
				C684.8,240.2,680.7,241,676.6,241z"/>
			<path class="st2" d="M577.6,240.4c-2.9,0-5.1-3.4-4-6.1c1.5-3.8,3.1-7.5,4.7-11.3c5.4-12.6,10.9-25.2,16.3-37.8
				c0.4-0.9,0.9-1.7,1.6-2.4c2.4-2.4,4.8-4.8,7.2-7.2c0.7-0.7,1.2-0.9,2.1-0.2c3.2,2.5,3.4,2.6,0.3,5.2c-5.5,4.7-9.2,10.6-11.9,17.3
				c-2.9,7.4-6.4,14.5-9.7,21.7c-0.5,1.2-0.5,1.9,0.5,2.8c2.3,2,4.5,4.1,6.8,6.2c0.6,0.6,1.2,0.7,2,0.3c10.1-4.9,20.2-9.8,30.3-14.7
				c1.1-0.5,1.2-1.1,0.2-1.7c-2.8-1.9-3.4-4.6-3.3-7.9c0-2.8,0.6-5,2.9-6.7c1.5-1.1,2.7-2.6,4-3.9c0.6-0.7,1.1-0.7,1.9-0.2
				c3,2,6,4,9,5.9c0.7,0.5,1,0.9,0.7,1.8c-0.8,2.2-1.3,4.4-1.3,6.8c0,0.9-0.4,1.5-1,2.1c-2.3,2.3-4.6,4.6-6.9,6.9
				c-0.5,0.5-1.1,0.9-1.8,1.2c-16.4,7.2-32.9,14.4-49.3,21.6C578.6,240.2,578.1,240.4,577.6,240.4z"/>
			<path class="st2" d="M612.3,196.4c-1,0-2.1,0-3.1,0c-0.7,0-1.1-0.3-1.1-1.1c0-2.2,0-4.4,0-6.6c0-0.6,0.3-1,0.7-1.4
				c1.5-1.5,2.9-2.9,4.4-4.4c0.6-0.7,1.1-0.7,1.9-0.1c2.5,1.9,5,3.8,7.5,5.7c0.7,0.5,0.7,0.9,0.1,1.5c-1.9,1.9-3.8,3.8-5.7,5.7
				c-0.4,0.4-0.9,0.7-1.6,0.7C614.4,196.4,613.3,196.4,612.3,196.4L612.3,196.4z"/>
		</g>
	</g>
</g>
</svg>
