<?xml version="1.0" encoding="utf-8"?>
<!-- Generator: Adobe Illustrator 19.1.1, SVG Export Plug-In . SVG Version: 6.00 Build 0)  -->
<svg version="1.1" id="Layer_1" xmlns="http://www.w3.org/2000/svg" xmlns:xlink="http://www.w3.org/1999/xlink" x="0px" y="0px"
	 viewBox="523.5 67.3 217 217" style="enable-background:new 523.5 67.3 217 217;" xml:space="preserve">
<style type="text/css">
	.st0{fill:#487CA8;}
	.st1{fill:none;}
	.st2{fill:#3C6F9A;}
	.st3{fill:#FFFFFF;}
	.st4{fill:#E2E2E2;}
	.st5{fill:#EFEFEF;}
</style>
<path class="st0" d="M720.5,284.3h-177c-11,0-20-9-20-20v-177c0-11,9-20,20-20h177c11,0,20,9,20,20v177
	C740.5,275.3,731.5,284.3,720.5,284.3z"/>
<g>
	<path class="st1" d="M681.1,283.9c-0.4,0.1-0.7,0.4-1,0.4h0.7C680.9,284.3,681,284,681.1,283.9z"/>
	<path class="st1" d="M679.3,283.1c-0.4,0.2-0.8,0.3-1.2,0.5c-0.3,0.1-0.5,0.1-0.8,0.2c0.3-0.4,0.7-0.8,1.1-1.2
		c-0.4,0.2-0.8,0.3-1.2,0.5c-0.3,0.1-0.5,0.1-0.8,0.2c0.3-0.4,0.7-0.8,1.1-1.2c-0.4,0.2-0.8,0.3-1.2,0.5c-0.3,0.1-0.5,0.1-0.8,0.2
		c0.3-0.4,0.7-0.8,1.1-1.2c-0.4,0.2-0.8,0.3-1.2,0.5c-0.3,0.1-0.5,0.1-0.8,0.2c0.3-0.4,0.7-0.8,1.1-1.2c-0.4,0.2-0.8,0.3-1.2,0.5
		c-0.3,0.1-0.5,0.1-0.8,0.2c0.3-0.4,0.7-0.8,1.1-1.2c-0.4,0.2-0.8,0.3-1.2,0.5c-0.3,0.1-0.5,0.1-0.8,0.2c0.3-0.4,0.7-0.8,1.1-1.2
		c-0.4,0.2-0.8,0.3-1.2,0.5c-0.3,0.1-0.5,0.1-0.8,0.2c0.3-0.4,0.7-0.8,1.1-1.2c-0.4,0.2-0.8,0.3-1.2,0.5c-0.3,0.1-0.5,0.1-0.8,0.2
		c0.3-0.4,0.7-0.8,1.1-1.2c-0.4,0.2-0.8,0.3-1.2,0.5c-0.3,0.1-0.5,0.1-0.8,0.2c0.3-0.4,0.7-0.8,1.1-1.2c-0.4,0.2-0.8,0.3-1.2,0.5
		c-0.3,0.1-0.5,0.1-0.8,0.2c0.3-0.4,0.7-0.8,1.1-1.2c-0.4,0.2-0.8,0.3-1.2,0.5c-0.3,0.1-0.5,0.1-0.8,0.2c0.3-0.4,0.7-0.8,1.1-1.2
		c-0.4,0.2-0.8,0.3-1.2,0.5c-0.3,0.1-0.5,0.1-0.8,0.2c0.3-0.4,0.7-0.8,1.1-1.2c-0.4,0.2-0.8,0.3-1.2,0.5c-0.3,0.1-0.5,0.1-0.8,0.2
		c0.3-0.4,0.7-0.8,1.1-1.2c-0.4,0.2-0.8,0.3-1.2,0.5c-0.3,0.1-0.5,0.1-0.8,0.2c0.3-0.4,0.7-0.8,1.1-1.2c-0.4,0.2-0.8,0.3-1.2,0.5
		c-0.3,0.1-0.5,0.1-0.8,0.2c0.3-0.4,0.7-0.8,1.1-1.2c-0.4,0.2-0.8,0.3-1.2,0.5c-0.3,0.1-0.5,0.1-0.8,0.2c0.3-0.4,0.7-0.8,1.1-1.2
		c-0.4,0.2-0.8,0.3-1.2,0.5c-0.3,0.1-0.5,0.1-0.8,0.2c0.3-0.4,0.7-0.8,1.1-1.2c-0.4,0.2-0.8,0.3-1.2,0.5c-0.3,0.1-0.5,0.1-0.8,0.2
		c0.3-0.4,0.7-0.8,1.1-1.2c-0.4,0.2-0.8,0.3-1.2,0.5c-0.3,0.1-0.5,0.1-0.8,0.2c0.3-0.4,0.7-0.8,1.1-1.2c-0.4,0.2-0.8,0.3-1.2,0.5
		c-0.3,0.1-0.5,0.1-0.8,0.2c0.3-0.4,0.7-0.8,1.1-1.2c-0.4,0.2-0.8,0.3-1.2,0.5c-0.3,0.1-0.5,0.1-0.8,0.2c0.3-0.4,0.7-0.8,1.1-1.2
		c-0.4,0.2-0.8,0.3-1.2,0.5c-0.3,0.1-0.5,0.1-0.8,0.2c0.3-0.4,0.7-0.8,1.1-1.2c-0.4,0.2-0.8,0.3-1.2,0.5c-0.3,0.1-0.5,0.1-0.8,0.2
		c0.3-0.4,0.7-0.8,1.1-1.2c-0.4,0.2-0.8,0.3-1.2,0.5c-0.3,0.1-0.5,0.1-0.8,0.2c0.3-0.4,0.7-0.8,1.1-1.2c-0.4,0.2-0.8,0.3-1.2,0.5
		c-0.3,0.1-0.5,0.1-0.8,0.2c0.3-0.4,0.7-0.8,1.1-1.2c-0.4,0.2-0.8,0.3-1.2,0.5c-0.3,0.1-0.5,0.1-0.8,0.2c0.3-0.4,0.7-0.8,1.1-1.2
		c-0.4,0.2-0.8,0.3-1.2,0.5c-0.3,0.1-0.5,0.1-0.8,0.2c0.3-0.4,0.7-0.8,1.1-1.2c-0.4,0.2-0.8,0.3-1.2,0.5c-0.3,0.1-0.5,0.1-0.8,0.2
		c0.3-0.4,0.7-0.8,1.1-1.2c-0.4,0.2-0.8,0.3-1.2,0.5c-0.3,0.1-0.5,0.1-0.8,0.2c0.3-0.4,0.7-0.8,1.1-1.2c-0.4,0.2-0.8,0.3-1.2,0.5
		c-0.3,0.1-0.5,0.1-0.8,0.2c0.3-0.4,0.7-0.8,1.1-1.2c-0.4,0.2-0.8,0.3-1.2,0.5c-0.3,0.1-0.5,0.1-0.8,0.2c0.3-0.4,0.7-0.8,1.1-1.2
		c-0.4,0.2-0.8,0.3-1.2,0.5c-0.3,0.1-0.5,0.1-0.8,0.2c0.3-0.4,0.7-0.8,1.1-1.2c-0.4,0.2-0.8,0.3-1.2,0.5c-0.3,0.1-0.5,0.1-0.8,0.2
		c0.3-0.4,0.7-0.8,1.1-1.2c-0.4,0.2-0.8,0.3-1.2,0.5c-0.3,0.1-0.5,0.1-0.8,0.2c0.3-0.4,0.7-0.8,1.1-1.2c-0.4,0.2-0.8,0.3-1.2,0.5
		c-0.3,0.1-0.5,0.1-0.8,0.2c0.3-0.4,0.7-0.8,1.1-1.2c-0.4,0.2-0.8,0.3-1.2,0.5c-0.3,0.1-0.5,0.1-0.8,0.2c0.3-0.4,0.7-0.8,1.1-1.2
		c-0.4,0.2-0.8,0.3-1.2,0.5c-0.3,0.1-0.5,0.1-0.8,0.2c0.3-0.4,0.7-0.8,1.1-1.2c-0.4,0.2-0.8,0.3-1.2,0.5c-0.3,0.1-0.5,0.1-0.8,0.2
		c0.3-0.4,0.7-0.8,1.1-1.2c-0.4,0.2-0.8,0.3-1.2,0.5c-0.3,0.1-0.5,0.1-0.8,0.2c0.3-0.4,0.7-0.8,1.1-1.2c-0.4,0.2-0.8,0.3-1.2,0.5
		c-0.3,0.1-0.5,0.1-0.8,0.2c0.3-0.4,0.7-0.8,1.1-1.2c-0.4,0.2-0.8,0.3-1.2,0.5c-0.3,0.1-0.5,0.1-0.8,0.2c0.3-0.4,0.7-0.8,1.1-1.2
		c-0.4,0.2-0.8,0.3-1.2,0.5c-0.3,0.1-0.5,0.1-0.8,0.2c0.3-0.4,0.7-0.8,1.1-1.2c-0.4,0.2-0.8,0.3-1.2,0.5c-0.3,0.1-0.5,0.1-0.8,0.2
		c0.3-0.4,0.7-0.8,1.1-1.2c-0.4,0.2-0.8,0.3-1.2,0.5c-0.3,0.1-0.5,0.1-0.8,0.2c0.3-0.4,0.7-0.8,1.1-1.2c-0.4,0.2-0.8,0.3-1.2,0.5
		c-0.3,0.1-0.5,0.1-0.8,0.2c0.3-0.4,0.7-0.8,1.1-1.2c-0.4,0.2-0.8,0.3-1.2,0.5c-0.3,0.1-0.5,0.1-0.8,0.2c0.3-0.4,0.7-0.8,1.1-1.2
		c-0.4,0.2-0.8,0.3-1.2,0.5c-0.3,0.1-0.5,0.1-0.8,0.2c0.3-0.4,0.7-0.8,1.1-1.2c-0.4,0.2-0.8,0.3-1.2,0.5c-0.3,0.1-0.5,0.1-0.8,0.2
		c0.3-0.4,0.7-0.8,1.1-1.2c-0.4,0.2-0.8,0.3-1.2,0.5c-0.3,0.1-0.5,0.1-0.8,0.2c0.3-0.4,0.7-0.8,1.1-1.2c-0.4,0.2-0.8,0.3-1.2,0.5
		c-0.3,0.1-0.5,0.1-0.8,0.2c0.3-0.4,0.7-0.8,1.1-1.2c-0.4,0.2-0.8,0.3-1.2,0.5c-0.3,0.1-0.5,0.1-0.8,0.2c0.3-0.4,0.7-0.8,1.1-1.2
		c-0.4,0.2-0.8,0.3-1.2,0.5c-0.3,0.1-0.5,0.1-0.8,0.2c0.3-0.4,0.7-0.8,1.1-1.2c-0.4,0.2-0.8,0.3-1.2,0.5c-0.3,0.1-0.5,0.1-0.8,0.2
		c0.3-0.4,0.7-0.8,1.1-1.2c-0.4,0.2-0.8,0.3-1.2,0.5c-0.3,0.1-0.5,0.1-0.8,0.2c0.3-0.4,0.7-0.8,1.1-1.2c-0.4,0.2-0.8,0.3-1.2,0.5
		c-0.3,0.1-0.5,0.1-0.8,0.2c0.3-0.4,0.7-0.8,1.1-1.2c-0.4,0.2-0.8,0.3-1.2,0.5c-0.3,0.1-0.5,0.1-0.8,0.2c0.3-0.4,0.7-0.8,1.1-1.2
		c-0.4,0.2-0.8,0.3-1.2,0.5c-0.3,0.1-0.5,0.1-0.8,0.2c0.3-0.4,0.7-0.8,1.1-1.2c-0.4,0.2-0.8,0.3-1.2,0.5c-0.3,0.1-0.5,0.1-0.8,0.2
		c0.3-0.4,0.7-0.8,1.1-1.2c-0.4,0.2-0.8,0.3-1.2,0.5c-0.3,0.1-0.5,0.1-0.8,0.2c0.3-0.4,0.7-0.8,1.1-1.2c-0.4,0.2-0.8,0.3-1.2,0.5
		c-0.3,0.1-0.5,0.1-0.8,0.2c0.3-0.4,0.7-0.8,1.1-1.2c-0.4,0.2-0.8,0.3-1.2,0.5c-0.3,0.1-0.5,0.1-0.8,0.2c0.3-0.4,0.7-0.8,1.1-1.2
		c-0.4,0.2-0.8,0.3-1.2,0.5c-0.3,0.1-0.5,0.1-0.8,0.2c0.3-0.4,0.7-0.8,1.1-1.2c-0.4,0.2-0.8,0.3-1.2,0.5c-0.3,0.1-0.5,0.1-0.8,0.2
		c0.3-0.4,0.7-0.8,1.1-1.2c-0.4,0.2-0.8,0.3-1.2,0.5c-0.3,0.1-0.5,0.1-0.8,0.2c0.3-0.4,0.7-0.8,1.1-1.2c-0.4,0.2-0.8,0.3-1.2,0.5
		c-0.3,0.1-0.5,0.1-0.8,0.2c0.3-0.4,0.7-0.8,1.1-1.2c-0.4,0.2-0.8,0.3-1.2,0.5c-0.3,0.1-0.5,0.1-0.8,0.2c0.3-0.4,0.7-0.8,1.1-1.2
		c-0.4,0.2-0.8,0.3-1.2,0.5c-0.3,0.1-0.5,0.1-0.8,0.2c0.3-0.4,0.7-0.8,1.1-1.2c-0.4,0.2-0.8,0.3-1.2,0.5c-0.3,0.1-0.5,0.1-0.8,0.2
		c0.3-0.4,0.7-0.8,1.1-1.2c-0.4,0.2-0.8,0.3-1.2,0.5c-0.3,0.1-0.5,0.1-0.8,0.2c0.3-0.4,0.7-0.8,1.1-1.2c-0.4,0.2-0.8,0.3-1.2,0.5
		c-0.3,0.1-0.5,0.1-0.8,0.2c0.3-0.4,0.7-0.8,1.1-1.2c-0.4,0.2-0.8,0.3-1.2,0.5c-0.3,0.1-0.5,0.1-0.8,0.2c0.3-0.4,0.7-0.8,1.1-1.2
		c-0.4,0.2-0.8,0.3-1.2,0.5c-0.3,0.1-0.5,0.1-0.8,0.2c0.3-0.4,0.7-0.8,1.1-1.2c-0.4,0.2-0.8,0.3-1.2,0.5c-0.3,0.1-0.5,0.1-0.8,0.2
		c0.3-0.4,0.7-0.8,1.1-1.2c-0.4,0.2-0.8,0.3-1.2,0.5c-0.3,0.1-0.5,0.1-0.8,0.2c0.3-0.4,0.7-0.8,1.1-1.2c-0.4,0.2-0.8,0.3-1.2,0.5
		c-0.3,0.1-0.5,0.1-0.8,0.2c0.3-0.4,0.7-0.8,1.1-1.2c-0.4,0.2-0.8,0.3-1.2,0.5c-0.3,0.1-0.5,0.1-0.8,0.2c0.3-0.4,0.7-0.8,1.1-1.2
		c-0.4,0.2-0.8,0.3-1.2,0.5c-0.3,0.1-0.5,0.1-0.8,0.2c0.3-0.4,0.7-0.8,1.1-1.2c-0.4,0.2-0.8,0.3-1.2,0.5c-0.3,0.1-0.5,0.1-0.8,0.2
		c2.9-3.3,5.9-6.5,8.7-9.8c1.7-2,3.3-4.1,4.7-6.3l-0.1-0.1c-0.1,0-0.2,0.1-0.3,0.1c-0.2-0.3-0.4-0.5-0.6-0.7c-0.1,0-0.2,0.1-0.3,0.1
		c-0.2-0.3-0.4-0.5-0.6-0.7c-0.1,0-0.2,0.1-0.3,0.1c-0.2-0.3-0.4-0.5-0.6-0.7c-0.1,0-0.2,0.1-0.3,0.1c-0.2-0.3-0.4-0.5-0.6-0.7
		c-0.1,0-0.2,0.1-0.3,0.1c-0.2-0.3-0.4-0.5-0.6-0.7c-0.1,0-0.2,0.1-0.3,0.1c-0.2-0.3-0.4-0.5-0.6-0.7c-0.1,0-0.2,0.1-0.3,0.1
		c-0.2-0.3-0.4-0.5-0.6-0.7c-0.1,0-0.2,0.1-0.3,0.1c-0.2-0.3-0.4-0.5-0.6-0.7c-0.1,0-0.2,0.1-0.3,0.1c-0.2-0.3-0.4-0.5-0.6-0.7
		c-0.1,0-0.2,0.1-0.3,0.1c-0.2-0.3-0.4-0.5-0.6-0.7c-0.1,0-0.2,0.1-0.3,0.1c-0.2-0.3-0.4-0.5-0.6-0.7c-0.1,0-0.2,0.1-0.3,0.1
		c-0.2-0.3-0.4-0.5-0.6-0.7c-0.1,0-0.2,0.1-0.3,0.1c-0.2-0.3-0.4-0.5-0.6-0.7c-0.1,0-0.2,0.1-0.3,0.1c-0.2-0.3-0.4-0.5-0.6-0.7
		c-0.1,0-0.2,0.1-0.3,0.1c-0.2-0.3-0.4-0.5-0.6-0.7c-0.1,0-0.2,0.1-0.3,0.1c-0.2-0.3-0.4-0.5-0.6-0.7c-0.1,0-0.2,0.1-0.3,0.1
		c-0.2-0.3-0.4-0.5-0.6-0.7c-0.1,0-0.2,0.1-0.3,0.1c-0.7-0.9-1.5-1.8-2.2-2.7c-0.1,0-0.1,0.1-0.2,0.1c0-0.1,0.1-0.1,0.1-0.2
		c-0.2-0.2-0.3-0.4-0.5-0.6c-0.1,0.1-0.3,0.2-0.4,0.3c0.1-0.1,0.2-0.3,0.3-0.4c-0.1-0.2-0.3-0.3-0.4-0.5c-0.2,0.1-0.5,0.3-0.7,0.4
		c0.2-0.2,0.3-0.5,0.5-0.7c-0.1-0.1-0.2-0.3-0.3-0.4c-0.4,0.2-0.7,0.4-1,0.6c0.2-0.3,0.4-0.7,0.6-1c0-0.1-0.1-0.2-0.2-0.3
		c-0.4,0.2-0.8,0.5-1.2,0.7c0.3-0.5,0.5-0.9,0.8-1.3c-0.1-0.1-0.1-0.1-0.2-0.2c-0.5,0.3-1,0.6-1.5,0.9c0.4-0.5,0.7-1,1-1.5
		c-0.1,0-0.1-0.1-0.1-0.1c-0.5,0.4-1.1,0.7-1.7,1.1c0.4-0.6,0.7-1.1,1.1-1.7c-0.6,0.4-1.2,0.8-1.9,1.2c0.4-0.6,0.7-1.1,1.1-1.7
		c-0.6,0.4-1.2,0.8-1.9,1.2c0.4-0.6,0.7-1.1,1.1-1.7c-0.6,0.4-1.2,0.8-1.9,1.2c0.4-0.6,0.7-1.1,1.1-1.7c-0.6,0.4-1.2,0.8-1.9,1.2
		c0.4-0.6,0.7-1.1,1.1-1.7c-0.6,0.4-1.2,0.8-1.9,1.2c0.4-0.6,0.7-1.1,1.1-1.7c-0.6,0.4-1.2,0.8-1.9,1.2c0.4-0.6,0.7-1.1,1.1-1.7
		c-0.6,0.4-1.2,0.8-1.9,1.2c0.4-0.6,0.7-1.1,1.1-1.7c-0.6,0.4-1.2,0.8-1.9,1.2c0.4-0.6,0.7-1.1,1.1-1.7c-0.6,0.4-1.2,0.8-1.9,1.2
		c0.4-0.6,0.7-1.1,1.1-1.7c-0.6,0.4-1.2,0.8-1.9,1.2c0.4-0.6,0.7-1.1,1.1-1.7c-0.6,0.4-1.2,0.8-1.9,1.2c0.4-0.6,0.7-1.1,1.1-1.7
		c-0.6,0.4-1.2,0.8-1.9,1.2c0.4-0.6,0.7-1.1,1.1-1.7c-0.6,0.4-1.2,0.8-1.9,1.2c0.4-0.6,0.7-1.1,1.1-1.7c-0.6,0.4-1.2,0.8-1.9,1.2
		c0.4-0.6,0.7-1.1,1.1-1.7c-0.6,0.4-1.2,0.8-1.9,1.2c0.4-0.6,0.7-1.1,1.1-1.7c-0.6,0.4-1.2,0.8-1.9,1.2c0.4-0.6,0.7-1.1,1.1-1.7
		c-0.6,0.4-1.2,0.8-1.9,1.2c0.4-0.6,0.7-1.1,1.1-1.7c-0.6,0.4-1.2,0.8-1.9,1.2c0.4-0.6,0.7-1.1,1.1-1.7c-0.6,0.4-1.2,0.8-1.9,1.2
		c0.4-0.6,0.7-1.1,1.1-1.7c-0.6,0.4-1.2,0.8-1.9,1.2c0.4-0.6,0.7-1.1,1.1-1.7c-0.6,0.4-1.2,0.8-1.9,1.2c0.4-0.6,0.7-1.1,1.1-1.7
		c-0.6,0.4-1.2,0.8-1.9,1.2c0.4-0.6,0.7-1.1,1.1-1.7c-0.6,0.4-1.2,0.8-1.9,1.2c0.4-0.6,0.7-1.1,1.1-1.7c-0.6,0.4-1.2,0.8-1.9,1.2
		c0.4-0.6,0.7-1.1,1.1-1.7c-0.6,0.4-1.2,0.8-1.9,1.2c0.4-0.6,0.7-1.1,1.1-1.7c-0.6,0.4-1.2,0.8-1.9,1.2c0.4-0.6,0.7-1.1,1.1-1.7
		c-0.6,0.4-1.2,0.8-1.9,1.2c0.4-0.6,0.7-1.1,1.1-1.7c-0.6,0.4-1.2,0.8-1.9,1.2c0.4-0.6,0.7-1.1,1.1-1.7c-0.6,0.4-1.2,0.8-1.9,1.2
		c0.4-0.6,0.7-1.1,1.1-1.7c-0.6,0.4-1.2,0.8-1.9,1.2c0.4-0.6,0.7-1.1,1.1-1.7c-0.6,0.4-1.2,0.8-1.9,1.2c0.4-0.6,0.7-1.1,1.1-1.7
		c-0.6,0.4-1.2,0.8-1.9,1.2c0.4-0.6,0.7-1.1,1.1-1.7c-0.6,0.4-1.2,0.8-1.9,1.2c0.4-0.6,0.7-1.1,1.1-1.7c-0.6,0.4-1.2,0.8-1.9,1.2
		c0.4-0.6,0.7-1.1,1.1-1.7c-0.6,0.4-1.2,0.8-1.9,1.2c0.4-0.6,0.7-1.1,1.1-1.7c-0.6,0.4-1.2,0.8-1.9,1.2c0.4-0.6,0.7-1.1,1.1-1.7
		c-0.6,0.4-1.2,0.8-1.9,1.2c0.4-0.6,0.7-1.1,1.1-1.7c-0.6,0.4-1.2,0.8-1.9,1.2c0.4-0.6,0.7-1.1,1.1-1.7c-0.6,0.4-1.2,0.8-1.9,1.2
		c0.4-0.6,0.7-1.1,1.1-1.7c-0.6,0.4-1.2,0.8-1.9,1.2c0.4-0.6,0.7-1.1,1.1-1.7c-0.6,0.4-1.2,0.8-1.9,1.2c0.4-0.6,0.7-1.1,1.1-1.7
		c-0.6,0.4-1.2,0.8-1.9,1.2c0.4-0.6,0.7-1.1,1.1-1.7c-0.6,0.4-1.2,0.8-1.9,1.2c1.6-2.5,3.1-5,4.7-7.4c5-7.5,10.4-14.7,17.1-20.8
		c4.7-4.3,9.8-8.1,16.1-9.7c4.9-1.2,9.5-0.7,13.9,1.8c0.2,0.1,0.4,0.2,0.8,0.4c1.5-1.8,2.9-3.6,4.4-5.4
		c9.1-10.9,19.4-20.4,31.6-27.8c11.9-7.2,24.6-12,38.7-12.2c4.9,0,9.7,0.5,14.3,2.5c0.7,0.3,1.4,0.7,2,1.1c0.2,0.1,0.5,0.3,0.8,0.5
		c0.2,0.1,0.5,0.3,0.8,0.5c0.2,0.1,0.5,0.3,0.8,0.5c0.2,0.1,0.5,0.3,0.8,0.5c0.2,0.1,0.5,0.3,0.8,0.5c0.2,0.1,0.5,0.3,0.8,0.5
		c0.2,0.1,0.5,0.3,0.8,0.5c0.2,0.1,0.5,0.3,0.8,0.5c0.2,0.1,0.5,0.3,0.8,0.5c0.2,0.1,0.5,0.3,0.8,0.5c0.2,0.1,0.5,0.3,0.8,0.5
		c0.2,0.1,0.5,0.3,0.8,0.5c0.2,0.1,0.5,0.3,0.8,0.5c0.2,0.1,0.5,0.3,0.8,0.5c0.2,0.1,0.5,0.3,0.8,0.5c0.2,0.1,0.5,0.3,0.8,0.5
		c0.2,0.1,0.5,0.3,0.8,0.5c0.2,0.1,0.5,0.3,0.8,0.5c0.2,0.1,0.5,0.3,0.8,0.5c0.2,0.1,0.5,0.3,0.8,0.5c0.2,0.1,0.5,0.3,0.8,0.5
		c0.2,0.1,0.5,0.3,0.8,0.5c0.2,0.1,0.5,0.3,0.8,0.5c0.2,0.1,0.5,0.3,0.8,0.5c0.2,0.1,0.5,0.3,0.8,0.5c0.2,0.1,0.5,0.3,0.8,0.5
		c0.2,0.1,0.5,0.3,0.8,0.5c0.2,0.1,0.5,0.3,0.8,0.5c0.2,0.1,0.5,0.3,0.8,0.5c0.2,0.1,0.5,0.3,0.8,0.5c0.2,0.1,0.5,0.3,0.8,0.5
		c0.2,0.1,0.5,0.3,0.8,0.5c0.2,0.1,0.5,0.3,0.8,0.5c0.2,0.1,0.5,0.3,0.8,0.5c0.2,0.1,0.5,0.3,0.8,0.5c0.2,0.1,0.5,0.3,0.8,0.5
		c0.2,0.1,0.5,0.3,0.8,0.5c0.2,0.1,0.5,0.3,0.8,0.5c0.1,0.1,0.5,0.2,2.5,0.3V87.3c0-11-9-20-20-20h-177c-11,0-20,9-20,20v177
		c0,11,9,20,20,20h134.7C678.5,283.9,678.9,283.5,679.3,283.1z"/>
	<path class="st1" d="M680.2,283.5c-0.4,0.1-0.8,0.4-1.2,0.6c-0.3,0.1-0.5,0.1-0.8,0.2h1.2C679.7,284.3,679.9,283.8,680.2,283.5z"/>
	<path class="st2" d="M737.2,132.7c-0.3-0.2-0.6-0.4-0.8-0.5c-0.3-0.2-0.6-0.4-0.8-0.5c-0.3-0.2-0.6-0.4-0.8-0.5
		c-0.3-0.2-0.6-0.4-0.8-0.5c-0.3-0.2-0.6-0.4-0.8-0.5c-0.3-0.2-0.6-0.4-0.8-0.5c-0.3-0.2-0.6-0.4-0.8-0.5c-0.3-0.2-0.6-0.4-0.8-0.5
		c-0.3-0.2-0.6-0.4-0.8-0.5c-0.3-0.2-0.6-0.4-0.8-0.5c-0.3-0.2-0.6-0.4-0.8-0.5c-0.3-0.2-0.6-0.4-0.8-0.5c-0.3-0.2-0.6-0.4-0.8-0.5
		c-0.3-0.2-0.6-0.4-0.8-0.5c-0.3-0.2-0.6-0.4-0.8-0.5c-0.3-0.2-0.6-0.4-0.8-0.5c-0.3-0.2-0.6-0.4-0.8-0.5c-0.3-0.2-0.6-0.4-0.8-0.5
		c-0.3-0.2-0.6-0.4-0.8-0.5c-0.3-0.2-0.6-0.4-0.8-0.5c-0.3-0.2-0.6-0.4-0.8-0.5c-0.3-0.2-0.6-0.4-0.8-0.5c-0.3-0.2-0.6-0.4-0.8-0.5
		c-0.3-0.2-0.6-0.4-0.8-0.5c-0.3-0.2-0.6-0.4-0.8-0.5c-0.3-0.2-0.6-0.4-0.8-0.5c-0.3-0.2-0.6-0.4-0.8-0.5c-0.3-0.2-0.6-0.4-0.8-0.5
		c-0.3-0.2-0.6-0.4-0.8-0.5c-0.3-0.2-0.6-0.4-0.8-0.5c-0.3-0.2-0.6-0.4-0.8-0.5c-0.3-0.2-0.6-0.4-0.8-0.5c-0.3-0.2-0.6-0.4-0.8-0.5
		c-0.3-0.2-0.6-0.4-0.8-0.5c-0.3-0.2-0.6-0.4-0.8-0.5c-0.3-0.2-0.6-0.4-0.8-0.5c-0.3-0.2-0.6-0.4-0.8-0.5c-0.6-0.4-1.3-0.8-2-1.1
		c-4.6-2-9.4-2.5-14.3-2.5c-14.1,0.2-26.8,5-38.7,12.2c-12.2,7.4-22.5,16.9-31.6,27.8c-1.5,1.8-2.9,3.6-4.4,5.4
		c-0.4-0.2-0.6-0.3-0.8-0.4c-4.4-2.5-9-3-13.9-1.8c-6.3,1.6-11.4,5.4-16.1,9.7c-6.7,6.1-12.1,13.3-17.1,20.8
		c-1.6,2.4-3.1,4.9-4.7,7.4c0.7-0.4,1.3-0.8,1.9-1.2c-0.4,0.6-0.7,1.1-1.1,1.7c0.7-0.4,1.3-0.8,1.9-1.2c-0.4,0.6-0.7,1.1-1.1,1.7
		c0.7-0.4,1.3-0.8,1.9-1.2c-0.4,0.6-0.7,1.1-1.1,1.7c0.7-0.4,1.3-0.8,1.9-1.2c-0.4,0.6-0.7,1.1-1.1,1.7c0.7-0.4,1.3-0.8,1.9-1.2
		c-0.4,0.6-0.7,1.1-1.1,1.7c0.7-0.4,1.3-0.8,1.9-1.2c-0.4,0.6-0.7,1.1-1.1,1.7c0.7-0.4,1.3-0.8,1.9-1.2c-0.4,0.6-0.7,1.1-1.1,1.7
		c0.7-0.4,1.3-0.8,1.9-1.2c-0.4,0.6-0.7,1.1-1.1,1.7c0.7-0.4,1.3-0.8,1.9-1.2c-0.4,0.6-0.7,1.1-1.1,1.7c0.7-0.4,1.3-0.8,1.9-1.2
		c-0.4,0.6-0.7,1.1-1.1,1.7c0.7-0.4,1.3-0.8,1.9-1.2c-0.4,0.6-0.7,1.1-1.1,1.7c0.7-0.4,1.3-0.8,1.9-1.2c-0.4,0.6-0.7,1.1-1.1,1.7
		c0.7-0.4,1.3-0.8,1.9-1.2c-0.4,0.6-0.7,1.1-1.1,1.7c0.7-0.4,1.3-0.8,1.9-1.2c-0.4,0.6-0.7,1.1-1.1,1.7c0.7-0.4,1.3-0.8,1.9-1.2
		c-0.4,0.6-0.7,1.1-1.1,1.7c0.7-0.4,1.3-0.8,1.9-1.2c-0.4,0.6-0.7,1.1-1.1,1.7c0.7-0.4,1.3-0.8,1.9-1.2c-0.4,0.6-0.7,1.1-1.1,1.7
		c0.7-0.4,1.3-0.8,1.9-1.2c-0.4,0.6-0.7,1.1-1.1,1.7c0.7-0.4,1.3-0.8,1.9-1.2c-0.4,0.6-0.7,1.1-1.1,1.7c0.7-0.4,1.3-0.8,1.9-1.2
		c-0.4,0.6-0.7,1.1-1.1,1.7c0.7-0.4,1.3-0.8,1.9-1.2c-0.4,0.6-0.7,1.1-1.1,1.7c0.7-0.4,1.3-0.8,1.9-1.2c-0.4,0.6-0.7,1.1-1.1,1.7
		c0.7-0.4,1.3-0.8,1.9-1.2c-0.4,0.6-0.7,1.1-1.1,1.7c0.7-0.4,1.3-0.8,1.9-1.2c-0.4,0.6-0.7,1.1-1.1,1.7c0.7-0.4,1.3-0.8,1.9-1.2
		c-0.4,0.6-0.7,1.1-1.1,1.7c0.7-0.4,1.3-0.8,1.9-1.2c-0.4,0.6-0.7,1.1-1.1,1.7c0.7-0.4,1.3-0.8,1.9-1.2c-0.4,0.6-0.7,1.1-1.1,1.7
		c0.7-0.4,1.3-0.8,1.9-1.2c-0.4,0.6-0.7,1.1-1.1,1.7c0.7-0.4,1.3-0.8,1.9-1.2c-0.4,0.6-0.7,1.1-1.1,1.7c0.7-0.4,1.3-0.8,1.9-1.2
		c-0.4,0.6-0.7,1.1-1.1,1.7c0.7-0.4,1.3-0.8,1.9-1.2c-0.4,0.6-0.7,1.1-1.1,1.7c0.7-0.4,1.3-0.8,1.9-1.2c-0.4,0.6-0.7,1.1-1.1,1.7
		c0.7-0.4,1.3-0.8,1.9-1.2c-0.4,0.6-0.7,1.1-1.1,1.7c0.7-0.4,1.3-0.8,1.9-1.2c-0.4,0.6-0.7,1.1-1.1,1.7c0.7-0.4,1.3-0.8,1.9-1.2
		c-0.4,0.6-0.7,1.1-1.1,1.7c0.7-0.4,1.3-0.8,1.9-1.2c-0.4,0.6-0.7,1.1-1.1,1.7c0.7-0.4,1.3-0.8,1.9-1.2c-0.4,0.6-0.7,1.1-1.1,1.7
		c0.7-0.4,1.3-0.8,1.9-1.2c-0.4,0.6-0.7,1.1-1.1,1.7c0.7-0.4,1.3-0.8,1.9-1.2c-0.4,0.6-0.7,1.1-1.1,1.7c0.7-0.4,1.3-0.8,1.9-1.2
		c-0.4,0.6-0.7,1.1-1.1,1.7c0.7-0.4,1.3-0.8,1.9-1.2c-0.4,0.6-0.7,1.1-1.1,1.7c0.7-0.4,1.3-0.8,1.9-1.2c-0.4,0.6-0.7,1.1-1.1,1.7
		c0.7-0.4,1.3-0.8,1.9-1.2c-0.4,0.6-0.7,1.1-1.1,1.7c0.6-0.4,1.2-0.7,1.7-1.1c0,0,0,0.1,0.1,0.1c-0.3,0.5-0.6,1-1,1.5
		c0.5-0.3,1-0.6,1.5-0.9c0.1,0.1,0.1,0.1,0.2,0.2c-0.3,0.4-0.5,0.8-0.8,1.3c0.4-0.2,0.8-0.5,1.2-0.7c0.1,0.1,0.2,0.2,0.2,0.3
		c-0.2,0.3-0.4,0.7-0.6,1c0.3-0.2,0.6-0.4,1-0.6c0.1,0.1,0.2,0.3,0.3,0.4c-0.2,0.2-0.3,0.5-0.5,0.7c0.2-0.1,0.5-0.3,0.7-0.4
		c0.1,0.2,0.3,0.3,0.4,0.5c-0.1,0.1-0.2,0.3-0.3,0.4c0.1-0.1,0.3-0.2,0.4-0.3c0.2,0.2,0.3,0.4,0.5,0.6c0,0.1-0.1,0.1-0.1,0.2
		c0.1,0,0.1-0.1,0.2-0.1c0.7,0.9,1.5,1.8,2.2,2.7c0.1,0,0.2-0.1,0.3-0.1c0.2,0.2,0.4,0.4,0.6,0.7c0.1,0,0.2-0.1,0.3-0.1
		c0.2,0.2,0.4,0.4,0.6,0.7c0.1,0,0.2-0.1,0.3-0.1c0.2,0.2,0.4,0.4,0.6,0.7c0.1,0,0.2-0.1,0.3-0.1c0.2,0.2,0.4,0.4,0.6,0.7
		c0.1,0,0.2-0.1,0.3-0.1c0.2,0.2,0.4,0.4,0.6,0.7c0.1,0,0.2-0.1,0.3-0.1c0.2,0.2,0.4,0.4,0.6,0.7c0.1,0,0.2-0.1,0.3-0.1
		c0.2,0.2,0.4,0.4,0.6,0.7c0.1,0,0.2-0.1,0.3-0.1c0.2,0.2,0.4,0.4,0.6,0.7c0.1,0,0.2-0.1,0.3-0.1c0.2,0.2,0.4,0.4,0.6,0.7
		c0.1,0,0.2-0.1,0.3-0.1c0.2,0.2,0.4,0.4,0.6,0.7c0.1,0,0.2-0.1,0.3-0.1c0.2,0.2,0.4,0.4,0.6,0.7c0.1,0,0.2-0.1,0.3-0.1
		c0.2,0.2,0.4,0.4,0.6,0.7c0.1,0,0.2-0.1,0.3-0.1c0.2,0.2,0.4,0.4,0.6,0.7c0.1,0,0.2-0.1,0.3-0.1c0.2,0.2,0.4,0.4,0.6,0.7
		c0.1,0,0.2-0.1,0.3-0.1c0.2,0.2,0.4,0.4,0.6,0.7c0.1,0,0.2-0.1,0.3-0.1c0.2,0.2,0.4,0.4,0.6,0.7c0.1,0,0.2-0.1,0.3-0.1
		c0.2,0.2,0.4,0.4,0.6,0.7c0.1,0,0.2-0.1,0.3-0.1l0.1,0.1c-1.4,2.2-3,4.3-4.7,6.3c-2.8,3.3-5.8,6.5-8.7,9.8c0.3-0.1,0.5-0.1,0.8-0.2
		c0.4-0.2,0.8-0.3,1.2-0.5c-0.4,0.4-0.8,0.8-1.1,1.2c0.3-0.1,0.5-0.1,0.8-0.2c0.4-0.2,0.8-0.3,1.2-0.5c-0.4,0.4-0.8,0.8-1.1,1.2
		c0.3-0.1,0.5-0.1,0.8-0.2c0.4-0.2,0.8-0.3,1.2-0.5c-0.4,0.4-0.8,0.8-1.1,1.2c0.3-0.1,0.5-0.1,0.8-0.2c0.4-0.2,0.8-0.3,1.2-0.5
		c-0.4,0.4-0.8,0.8-1.1,1.2c0.3-0.1,0.5-0.1,0.8-0.2c0.4-0.2,0.8-0.3,1.2-0.5c-0.4,0.4-0.8,0.8-1.1,1.2c0.3-0.1,0.5-0.1,0.8-0.2
		c0.4-0.2,0.8-0.3,1.2-0.5c-0.4,0.4-0.8,0.8-1.1,1.2c0.3-0.1,0.5-0.1,0.8-0.2c0.4-0.2,0.8-0.3,1.2-0.5c-0.4,0.4-0.8,0.8-1.1,1.2
		c0.3-0.1,0.5-0.1,0.8-0.2c0.4-0.2,0.8-0.3,1.2-0.5c-0.4,0.4-0.8,0.8-1.1,1.2c0.3-0.1,0.5-0.1,0.8-0.2c0.4-0.2,0.8-0.3,1.2-0.5
		c-0.4,0.4-0.8,0.8-1.1,1.2c0.3-0.1,0.5-0.1,0.8-0.2c0.4-0.2,0.8-0.3,1.2-0.5c-0.4,0.4-0.8,0.8-1.1,1.2c0.3-0.1,0.5-0.1,0.8-0.2
		c0.4-0.2,0.8-0.3,1.2-0.5c-0.4,0.4-0.8,0.8-1.1,1.2c0.3-0.1,0.5-0.1,0.8-0.2c0.4-0.2,0.8-0.3,1.2-0.5c-0.4,0.4-0.8,0.8-1.1,1.2
		c0.3-0.1,0.5-0.1,0.8-0.2c0.4-0.2,0.8-0.3,1.2-0.5c-0.4,0.4-0.8,0.8-1.1,1.2c0.3-0.1,0.5-0.1,0.8-0.2c0.4-0.2,0.8-0.3,1.2-0.5
		c-0.4,0.4-0.8,0.8-1.1,1.2c0.3-0.1,0.5-0.1,0.8-0.2c0.4-0.2,0.8-0.3,1.2-0.5c-0.4,0.4-0.8,0.8-1.1,1.2c0.3-0.1,0.5-0.1,0.8-0.2
		c0.4-0.2,0.8-0.3,1.2-0.5c-0.4,0.4-0.8,0.8-1.1,1.2c0.3-0.1,0.5-0.1,0.8-0.2c0.4-0.2,0.8-0.3,1.2-0.5c-0.4,0.4-0.8,0.8-1.1,1.2
		c0.3-0.1,0.5-0.1,0.8-0.2c0.4-0.2,0.8-0.3,1.2-0.5c-0.4,0.4-0.8,0.8-1.1,1.2c0.3-0.1,0.5-0.1,0.8-0.2c0.4-0.2,0.8-0.3,1.2-0.5
		c-0.4,0.4-0.8,0.8-1.1,1.2c0.3-0.1,0.5-0.1,0.8-0.2c0.4-0.2,0.8-0.3,1.2-0.5c-0.4,0.4-0.8,0.8-1.1,1.2c0.3-0.1,0.5-0.1,0.8-0.2
		c0.4-0.2,0.8-0.3,1.2-0.5c-0.4,0.4-0.8,0.8-1.1,1.2c0.3-0.1,0.5-0.1,0.8-0.2c0.4-0.2,0.8-0.3,1.2-0.5c-0.4,0.4-0.8,0.8-1.1,1.2
		c0.3-0.1,0.5-0.1,0.8-0.2c0.4-0.2,0.8-0.3,1.2-0.5c-0.4,0.4-0.8,0.8-1.1,1.2c0.3-0.1,0.5-0.1,0.8-0.2c0.4-0.2,0.8-0.3,1.2-0.5
		c-0.4,0.4-0.8,0.8-1.1,1.2c0.3-0.1,0.5-0.1,0.8-0.2c0.4-0.2,0.8-0.3,1.2-0.5c-0.4,0.4-0.8,0.8-1.1,1.2c0.3-0.1,0.5-0.1,0.8-0.2
		c0.4-0.2,0.8-0.3,1.2-0.5c-0.4,0.4-0.8,0.8-1.1,1.2c0.3-0.1,0.5-0.1,0.8-0.2c0.4-0.2,0.8-0.3,1.2-0.5c-0.4,0.4-0.8,0.8-1.1,1.2
		c0.3-0.1,0.5-0.1,0.8-0.2c0.4-0.2,0.8-0.3,1.2-0.5c-0.4,0.4-0.8,0.8-1.1,1.2c0.3-0.1,0.5-0.1,0.8-0.2c0.4-0.2,0.8-0.3,1.2-0.5
		c-0.4,0.4-0.8,0.8-1.1,1.2c0.3-0.1,0.5-0.1,0.8-0.2c0.4-0.2,0.8-0.3,1.2-0.5c-0.4,0.4-0.8,0.8-1.1,1.2c0.3-0.1,0.5-0.1,0.8-0.2
		c0.4-0.2,0.8-0.3,1.2-0.5c-0.4,0.4-0.8,0.8-1.1,1.2c0.3-0.1,0.5-0.1,0.8-0.2c0.4-0.2,0.8-0.3,1.2-0.5c-0.4,0.4-0.8,0.8-1.1,1.2
		c0.3-0.1,0.5-0.1,0.8-0.2c0.4-0.2,0.8-0.3,1.2-0.5c-0.4,0.4-0.8,0.8-1.1,1.2c0.3-0.1,0.5-0.1,0.8-0.2c0.4-0.2,0.8-0.3,1.2-0.5
		c-0.4,0.4-0.8,0.8-1.1,1.2c0.3-0.1,0.5-0.1,0.8-0.2c0.4-0.2,0.8-0.3,1.2-0.5c-0.4,0.4-0.8,0.8-1.1,1.2c0.3-0.1,0.5-0.1,0.8-0.2
		c0.4-0.2,0.8-0.3,1.2-0.5c-0.4,0.4-0.8,0.8-1.1,1.2c0.3-0.1,0.5-0.1,0.8-0.2c0.4-0.2,0.8-0.3,1.2-0.5c-0.4,0.4-0.8,0.8-1.1,1.2
		c0.3-0.1,0.5-0.1,0.8-0.2c0.4-0.2,0.8-0.3,1.2-0.5c-0.4,0.4-0.8,0.8-1.1,1.2c0.3-0.1,0.5-0.1,0.8-0.2c0.4-0.2,0.8-0.3,1.2-0.5
		c-0.4,0.4-0.8,0.8-1.1,1.2c0.3-0.1,0.5-0.1,0.8-0.2c0.4-0.2,0.8-0.3,1.2-0.5c-0.4,0.4-0.8,0.8-1.1,1.2c0.3-0.1,0.5-0.1,0.8-0.2
		c0.4-0.2,0.8-0.3,1.2-0.5c-0.4,0.4-0.8,0.8-1.1,1.2c0.3-0.1,0.5-0.1,0.8-0.2c0.4-0.2,0.8-0.3,1.2-0.5c-0.4,0.4-0.8,0.8-1.1,1.2
		c0.3-0.1,0.5-0.1,0.8-0.2c0.4-0.2,0.8-0.3,1.2-0.5c-0.4,0.4-0.8,0.8-1.1,1.2c0.3-0.1,0.5-0.1,0.8-0.2c0.4-0.2,0.8-0.3,1.2-0.5
		c-0.4,0.4-0.8,0.8-1.1,1.2c0.3-0.1,0.5-0.1,0.8-0.2c0.4-0.2,0.8-0.3,1.2-0.5c-0.4,0.4-0.8,0.8-1.1,1.2c0.3-0.1,0.5-0.1,0.8-0.2
		c0.4-0.2,0.8-0.3,1.2-0.5c-0.4,0.4-0.8,0.8-1.1,1.2c0.3-0.1,0.5-0.1,0.8-0.2c0.4-0.2,0.8-0.3,1.2-0.5c-0.4,0.4-0.8,0.8-1.1,1.2
		c0.3-0.1,0.5-0.1,0.8-0.2c0.4-0.2,0.8-0.3,1.2-0.5c-0.4,0.4-0.8,0.8-1.1,1.2c0.3-0.1,0.5-0.1,0.8-0.2c0.4-0.2,0.8-0.3,1.2-0.5
		c-0.4,0.4-0.8,0.8-1.1,1.2c0.3-0.1,0.5-0.1,0.8-0.2c0.4-0.2,0.8-0.3,1.2-0.5c-0.4,0.4-0.8,0.8-1.1,1.2c0.3-0.1,0.5-0.1,0.8-0.2
		c0.4-0.2,0.8-0.3,1.2-0.5c-0.4,0.4-0.8,0.8-1.1,1.2c0.3-0.1,0.5-0.1,0.8-0.2c0.4-0.2,0.8-0.3,1.2-0.5c-0.4,0.4-0.8,0.8-1.1,1.2
		c0.3-0.1,0.5-0.1,0.8-0.2c0.4-0.2,0.8-0.3,1.2-0.5c-0.4,0.4-0.8,0.8-1.1,1.2c0.3-0.1,0.5-0.1,0.8-0.2c0.4-0.2,0.8-0.3,1.2-0.5
		c-0.4,0.4-0.8,0.8-1.1,1.2c0.3-0.1,0.5-0.1,0.8-0.2c0.4-0.2,0.8-0.3,1.2-0.5c-0.4,0.4-0.8,0.8-1.1,1.2c0.3-0.1,0.5-0.1,0.8-0.2
		c0.4-0.2,0.8-0.3,1.2-0.5c-0.4,0.4-0.8,0.8-1.1,1.2c0.3-0.1,0.5-0.1,0.8-0.2c0.4-0.2,0.8-0.3,1.2-0.5c-0.4,0.4-0.8,0.8-1.1,1.2
		c0.3-0.1,0.5-0.1,0.8-0.2c0.4-0.2,0.8-0.3,1.2-0.5c-0.4,0.4-0.8,0.8-1.1,1.2c0.3-0.1,0.5-0.1,0.8-0.2c0.4-0.2,0.8-0.3,1.2-0.5
		c-0.4,0.4-0.8,0.8-1.1,1.2c0.3-0.1,0.5-0.1,0.8-0.2c0.4-0.2,0.8-0.3,1.2-0.5c-0.4,0.4-0.8,0.8-1.1,1.2c0.3-0.1,0.5-0.1,0.8-0.2
		c0.4-0.2,0.8-0.3,1.2-0.5c-0.4,0.4-0.8,0.8-1.1,1.2c0.3-0.1,0.5-0.1,0.8-0.2c0.4-0.2,0.8-0.3,1.2-0.5c-0.4,0.4-0.8,0.8-1.1,1.2
		c0.3-0.1,0.5-0.1,0.8-0.2c0.4-0.2,0.8-0.3,1.2-0.5c-0.4,0.4-0.8,0.8-1.1,1.2c0.3-0.1,0.5-0.1,0.8-0.2c0.4-0.2,0.8-0.3,1.2-0.5
		c-0.4,0.4-0.8,0.8-1.1,1.2c0.3-0.1,0.5-0.1,0.8-0.2c0.4-0.2,0.8-0.3,1.2-0.5c-0.4,0.4-0.8,0.8-1.1,1.2c0.3-0.1,0.5-0.1,0.8-0.2
		c0.4-0.2,0.8-0.3,1.2-0.5c-0.4,0.4-0.8,0.8-1.1,1.2c0.3-0.1,0.5-0.1,0.8-0.2c0.4-0.2,0.8-0.3,1.2-0.5c-0.4,0.4-0.8,0.8-1.1,1.2
		c0.3-0.1,0.5-0.1,0.8-0.2c0.4-0.2,0.8-0.3,1.2-0.5c-0.4,0.4-0.8,0.8-1.1,1.2c0.3-0.1,0.5-0.1,0.8-0.2c0.4-0.2,0.8-0.3,1.2-0.5
		c-0.4,0.4-0.8,0.8-1.1,1.2c0.3-0.1,0.5-0.1,0.8-0.2c0.4-0.2,0.8-0.3,1.2-0.5c-0.4,0.4-0.8,0.8-1.1,1.2c0.3-0.1,0.5-0.1,0.8-0.2
		c0.4-0.2,0.8-0.3,1.2-0.5c-0.4,0.4-0.8,0.8-1.1,1.2c0.3-0.1,0.5-0.1,0.8-0.2c0.4-0.2,0.8-0.3,1.2-0.5c-0.4,0.4-0.8,0.8-1.1,1.2
		c0.3-0.1,0.5-0.1,0.8-0.2c0.4-0.2,0.8-0.3,1.2-0.5c-0.4,0.4-0.8,0.8-1.1,1.2c0.3-0.1,0.5-0.1,0.8-0.2c0.4-0.2,0.8-0.3,1.2-0.5
		c-0.4,0.4-0.8,0.8-1.1,1.2c0.3-0.1,0.5-0.1,0.8-0.2c0.4-0.2,0.8-0.3,1.2-0.5c-0.4,0.4-0.8,0.8-1.1,1.2c0.3-0.1,0.5-0.1,0.8-0.2
		c0.4-0.2,0.8-0.3,1.2-0.5c-0.4,0.4-0.8,0.8-1.1,1.2c0.3-0.1,0.5-0.1,0.8-0.2c0.4-0.2,0.8-0.3,1.2-0.5c-0.4,0.4-0.8,0.8-1.1,1.2
		c0.3-0.1,0.5-0.1,0.8-0.2c0.4-0.2,0.8-0.3,1.2-0.5c-0.4,0.4-0.8,0.8-1.1,1.2h0c0.3-0.1,0.5-0.1,0.8-0.2c0.4-0.2,0.8-0.5,1.2-0.6
		c-0.3,0.3-0.5,0.8-0.8,0.8h0.7c0.3,0,0.6-0.3,1-0.4c-0.1,0.1-0.2,0.4-0.3,0.4h39.7c11,0,20-9,20-20V133.5c-2-0.1-2.4-0.3-2.5-0.3
		C737.7,133,737.4,132.8,737.2,132.7z"/>
</g>
<g>
	
		<image style="overflow:visible;opacity:0.5;enable-background:new    ;" width="167" height="154" xlink:href="EF8D1CE5.png"  transform="matrix(1 0 0 1 559 103)">
	</image>
	<g>
		<g>
			<path class="st3" d="M607.5,217.5c-4.2-5-8.3-9.9-12.5-14.9c-1.9-2.3-3.9-4.7-5.8-6.9c-0.6-0.7-0.8-1.2-0.1-2.1
				c3.3-4.6,6.5-9.3,9.8-13.8c0.8-1.1,0.4-1.6-0.4-2.3c-2.4-1.7-5.2-1.9-8-1.5c-5.2,0.8-9.9,2.8-14.4,5.4c-4.2,2.3-8.2,4.9-12.4,7.5
				c1.6-2.5,3.1-5,4.7-7.4c5-7.5,10.4-14.7,17.1-20.8c4.7-4.3,9.7-8.1,16.1-9.7c4.9-1.2,9.5-0.7,13.9,1.8c0.2,0.1,0.5,0.2,0.8,0.4
				c1.5-1.8,2.9-3.6,4.4-5.4c9.1-10.9,19.4-20.4,31.6-27.8c11.9-7.2,24.6-12,38.7-12.2c4.9-0.1,9.7,0.5,14.3,2.5
				c3,1.3,4.8,3.4,5.5,6.5c1.2,5.2,0.8,10.4-0.2,15.5c-2.4,11.6-7.8,21.8-15.1,31c-7.6,9.7-16.7,17.7-26.9,24.5
				c-5,3.3-10.2,6.3-15.4,9.6c0-0.1,0,0.1,0,0.3c2.6,7.2,0.8,13.6-3.7,19.5c-3.8,5.1-8.7,8.9-13.9,12.3c-8.2,5.3-17,9.3-26.1,12.9
				c-0.2,0.1-0.5,0.2-0.8,0.2c2.9-3.3,5.9-6.4,8.7-9.8c3.6-4.3,6.9-8.9,8.6-14.4c0.9-2.7,1.2-5.4-0.1-8c-0.5-0.9-0.9-1.3-2-0.8
				c-5.1,2.4-10.2,4.8-15.2,7.2C608.5,217.1,608,217.2,607.5,217.5z M680.3,153.3c5.3-4.4,6-12.4,1.6-17.6
				c-4.4-5.2-12.4-5.9-17.7-1.5s-6,12.5-1.5,17.7C667.1,157.1,675,157.7,680.3,153.3z"/>
			<path class="st3" d="M684.8,144c-0.2,6.9-5.8,12.4-12.7,12.3s-12.5-5.9-12.3-12.9c0.2-6.9,6-12.4,12.8-12.2
				C679.4,131.4,684.9,137.1,684.8,144z"/>
			<path class="st4" d="M607.5,217.5c-3.2-3.8-6.3-7.6-9.5-11.3c-1-1.2,109.9-94.5,110.8-93.4c1,1.1,1.6,2.5,2,4.1
				c1.2,5.2,0.8,10.4-0.2,15.5c-2.4,11.6-7.8,21.8-15.1,31c-7.6,9.7-16.7,17.7-26.9,24.5c-5,3.3-10.2,6.3-15.4,9.6
				c0-0.1,0,0.1,0,0.3c2.6,7.2,0.8,13.6-3.7,19.5c-3.8,5.1-8.7,8.9-13.9,12.3c-8.2,5.3-17,9.3-26.1,12.9c-0.2,0.1-0.5,0.2-0.8,0.2
				c2.9-3.3,5.9-6.4,8.7-9.8c3.6-4.3,6.9-8.9,8.6-14.4c0.9-2.7,1.2-5.4-0.1-8c-0.5-0.9-0.9-1.3-2-0.8c-5.1,2.4-10.2,4.8-15.2,7.2
				C608.5,217.1,608,217.2,607.5,217.5z M680.3,153.3c5.3-4.4,6-12.4,1.6-17.6c-4.4-5.2-12.4-5.9-17.7-1.5s-6,12.5-1.5,17.7
				C667.1,157.1,675,157.7,680.3,153.3z"/>
		</g>
	</g>
</g>
<g>
	
		<image style="overflow:visible;opacity:0.5;enable-background:new    ;" width="70" height="65" xlink:href="EF8D1CE7.png"  transform="matrix(1 0 0 1 548 195)">
	</image>
	<g>
		<g>
			<path class="st5" d="M552.5,238.1c0,0,1.1-34.9,32.1-38.8l-1.7,3.9c0,0-29.7,24.1-27.8,33.4l-2.6,4.8V238.1z"/>
			<path class="st5" d="M557.3,244.2c0,0,33.9,8.6,46.2-20.1l-4.3,0.6c0,0-31.4,21.9-39.8,17.5l-5.3,1.1L557.3,244.2z"/>
		</g>
	</g>
</g>
</svg>
