<?xml version="1.0" encoding="utf-8"?>
<!-- Generator: Adobe Illustrator 19.1.1, SVG Export Plug-In . SVG Version: 6.00 Build 0)  -->
<svg version="1.1" id="Layer_1" xmlns="http://www.w3.org/2000/svg" xmlns:xlink="http://www.w3.org/1999/xlink" x="0px" y="0px"
	 viewBox="-214.5 68 217 217" style="enable-background:new -214.5 68 217 217;" xml:space="preserve">
<style type="text/css">
	.st0{fill:#487CA8;}
	.st1{fill:none;}
	.st2{fill:#3C6F9A;}
	.st3{fill:#FFFFFF;}
	.st4{fill:#E2E0E0;}
</style>
<path class="st0" d="M-17.5,285h-177c-11,0-20-9-20-20V88c0-11,9-20,20-20h177c11,0,20,9,20,20v177C2.5,276-6.5,285-17.5,285z"/>
<g>
	<path class="st1" d="M-93.8,284.9l-0.5-0.7l-0.1-0.1l-0.5-0.7l-0.1-0.1l-0.5-0.7l-0.1-0.1l-0.5-0.7l-0.1-0.1l-0.5-0.7l-0.1-0.1
		l-0.5-0.7l-0.1-0.1l-0.5-0.7l-0.1-0.1l-0.5-0.7l-0.1-0.1l-0.5-0.7l-0.1-0.1l-0.5-0.7l-0.1-0.1l-0.5-0.7l-0.1-0.1l-0.5-0.7l-0.1-0.1
		l-0.5-0.7l-0.1-0.1l-0.5-0.7l-0.1-0.1l-0.5-0.7l-0.1-0.1l-0.5-0.7l-0.1-0.1l-0.5-0.7l-0.1-0.1l-0.5-0.7l-0.1-0.1l-0.5-0.7l-0.1-0.1
		l-0.5-0.7l-0.1-0.1l-0.5-0.7l-0.1-0.1l-0.5-0.7l-0.1-0.1l-0.5-0.7l-0.1-0.1l-0.5-0.7l-0.1-0.1l-0.5-0.7l-0.1-0.1l-0.5-0.7l-0.1-0.1
		l-0.5-0.7l-0.1-0.1l-0.5-0.7l-0.1-0.1l-0.5-0.7l-0.1-0.1l-0.5-0.7l-0.1-0.1l-0.5-0.7l-0.1-0.1l-0.5-0.7l-0.1-0.1l-0.5-0.7l-0.1-0.1
		l-0.5-0.7l-0.1-0.1l-0.5-0.7l-0.1-0.1l-0.5-0.7l-0.1-0.1l-0.5-0.7l-0.1-0.1l-0.5-0.7l-0.1-0.1l-0.5-0.7l-0.1-0.1l-0.5-0.7l-0.1-0.1
		l-0.5-0.7l-0.1-0.1l-0.5-0.7l-0.1-0.1l-0.5-0.7l-0.1-0.1l-0.5-0.7l-0.1-0.1l-0.5-0.7l-0.1-0.1l-0.5-0.7l-0.1-0.1l-0.5-0.7l-0.1-0.1
		l-0.5-0.7l-0.1-0.1l-0.5-0.7l-0.1-0.1l-0.5-0.7l-0.1-0.1l-0.5-0.7l-0.1-0.1l-0.5-0.7l-0.1-0.1l-0.5-0.7l-0.1-0.1l-47.2-57.1
		c-0.1,0-0.5-0.8-1.3-2.1l7.1,0.4c0.1-0.2,0.2-0.4,0.4-0.6l-1.1-0.1c0.1-0.2,0.2-0.5,0.4-0.7l-1.1-0.1c0.1-0.2,0.2-0.5,0.4-0.7
		l-1.1-0.1c0.1-0.2,0.2-0.5,0.4-0.7l-1.1-0.1c0.1-0.2,0.2-0.5,0.4-0.7l-1.1-0.1c0.1-0.2,0.2-0.5,0.4-0.7l-1.1-0.1
		c0.1-0.2,0.2-0.5,0.4-0.7l-1.1-0.1c0.1-0.2,0.2-0.5,0.4-0.7l-8.5-4.4c0.1-0.2,0.2-0.5,0.4-0.7l-1.1-0.1c0.1-0.2,0.2-0.5,0.4-0.7
		l-1.1-0.1c0.2-0.6,0.7-1.1,1.3-1.6l83.9-69.8c0.5-0.5,1.2-0.8,1.9-1.1l-0.1,1.1c0.3-0.2,0.5-0.3,0.8-0.4l-0.1,1.1
		c0.3-0.2,0.5-0.3,0.8-0.4l-0.1,1.1c0.3-0.2,0.5-0.3,0.8-0.4l-0.1,1.1c0.3-0.2,0.5-0.3,0.8-0.4l-0.1,1.1c0.3-0.2,0.5-0.3,0.8-0.4
		l-0.1,1.1c0.3-0.2,0.5-0.3,0.8-0.4l-0.1,1.1c0.3-0.2,0.5-0.3,0.8-0.4l-0.1,1.1c0.3-0.2,0.5-0.3,0.8-0.4l-0.1,1.1
		c0.3-0.2,0.5-0.3,0.8-0.4l-0.1,1.1c0.2-0.1,0.3-0.1,0.5-0.2l0.9-6.9c0.6,0.5,1.2,1,1.8,1.7l0.6,0.7l0.1,0.1l0.6,0.7l0.1,0.1
		l0.6,0.7l0.1,0.1l0.6,0.7l0.1,0.1l0.6,0.7l0.1,0.1l0.6,0.7l0.1,0.1l0.6,0.7l0.1,0.1l0.6,0.7l0.1,0.1l0.6,0.7l0.1,0.1l0.6,0.7
		l0.1,0.1l0.6,0.7l0.1,0.1l0.6,0.7l0.1,0.1l0.6,0.7l0.1,0.1l0.6,0.7l0.1,0.1l0.6,0.7l0.1,0.1l0.6,0.7l0.1,0.1l0.6,0.7l0.1,0.1
		l0.6,0.7l0.1,0.1l0.6,0.7l0.1,0.1l0.6,0.7l0.1,0.1l0.6,0.7l0.1,0.1l0.6,0.7l0.1,0.1l0.6,0.7l0.1,0.1l0.6,0.7l0.1,0.1l0.6,0.7
		l0.1,0.1l0.6,0.7l0.1,0.1l0.6,0.7l0.1,0.1l0.6,0.7l0.1,0.1l0.6,0.7l0.1,0.1l0.6,0.7l0.1,0.1l0.6,0.7l0.1,0.1l0.6,0.7l0.1,0.1
		l0.6,0.7l0.1,0.1l0.6,0.7l0.1,0.1l0.6,0.7l0.1,0.1l0.6,0.7l0.1,0.1l0.6,0.7l0.1,0.1l0.6,0.7l0.1,0.1l0.6,0.7l0.1,0.1l0.6,0.7
		l0.1,0.1l0.6,0.7l0.1,0.1l0.6,0.7l0.1,0.1l0.6,0.7l0.1,0.1l0.6,0.7l0.1,0.1l0.6,0.7l0.1,0.1l0.6,0.7l0.1,0.1l0.6,0.7l0.1,0.1
		l0.6,0.7l0.1,0.1l0.6,0.7l0.1,0.1l0.6,0.7l0.1,0.1l0.6,0.7l0.1,0.1l0.6,0.7l0.1,0.1l0.6,0.7l0.1,0.1l0.6,0.7l0.1,0.1l0.6,0.7
		l0.1,0.1l0.6,0.7l0.1,0.1l0.6,0.7l0.1,0.1l0.6,0.7l0.1,0.1l0.6,0.7l0.1,0.1l0.6,0.7l0.1,0.1l0.6,0.7l0.1,0.1l0.6,0.7l0.1,0.1
		l0.6,0.7l0.1,0.1l0.6,0.7l0.1,0.1l0.6,0.7l0.1,0.1l0.6,0.7l0.1,0.1l0.6,0.7l0.1,0.1l0.6,0.7l0.1,0.1l0.6,0.7l0.1,0.1l0.6,0.7
		l0.1,0.1l0.6,0.7l0.1,0.1l0.6,0.7l0.1,0.1l0.6,0.7l0.1,0.1l0.6,0.7l0.1,0.1l0.6,0.7l0.1,0.1l0.6,0.7l0.1,0.1l0.6,0.7l0.1,0.1
		l0.6,0.7l0.1,0.1l0.6,0.7l0.1,0.1l0.6,0.7l0.1,0.1l0.6,0.7l0.1,0.1l0.6,0.7l0.1,0.1l0.6,0.7l0.1,0.1l0.6,0.7l0.1,0.1l0.6,0.7
		l0.1,0.1l0.6,0.7l0.1,0.1l0.6,0.7l0.1,0.1l0.6,0.7l0.1,0.1l0.6,0.7l0.1,0.1l0.6,0.7l0.1,0.1l0.6,0.7l0.1,0.1l0.6,0.7l0.1,0.1
		l0.6,0.7l0.1,0.1l0.6,0.7l0.1,0.1l0.6,0.7l0.1,0.1l0.6,0.7l0.1,0.1l0.6,0.7l0.1,0.1l0.6,0.7l0.1,0.1l0.6,0.7l0.1,0.1l0.6,0.7
		l0.1,0.1l0.6,0.7l0.1,0.1l0.6,0.7l0.1,0.1l0.6,0.7l0.1,0.1l0.6,0.7l0.1,0.1l0.6,0.7l0.1,0.1l0.6,0.7l0.1,0.1l0.6,0.7l0.1,0.1
		l0.6,0.7l0.1,0.1l0.6,0.7l0.1,0.1l0.6,0.7l0.1,0.1l0.6,0.7l0.1,0.1l0.6,0.7l0.1,0.1l0.6,0.7l0.1,0.1l0.6,0.7l0.1,0.1l0.6,0.7
		l0.1,0.1l0.6,0.7l0.1,0.1l0.6,0.7l0.1,0.1l0.6,0.7l0.1,0.1l0.6,0.7l0.1,0.1l0.6,0.7l0.1,0.1l0.6,0.7l0.1,0.1l0.6,0.7l0.1,0.1
		l0.6,0.7l0.1,0.1l0.6,0.7l0.1,0.1l0.6,0.7l0,0V88c0-11-9-20-20-20h-177c-11,0-20,9-20,20v177c0,11,9,20,20,20L-93.8,284.9
		L-93.8,284.9z"/>
	<path class="st2" d="M1.9,200.2L1.9,200.2l-0.7-0.8l-0.1-0.1l-0.6-0.7l-0.1-0.1l-0.6-0.7l-0.1-0.1l-0.6-0.7l-0.1-0.1l-0.6-0.7
		l-0.1-0.1l-0.6-0.7l-0.1-0.1l-0.6-0.7l-0.1-0.1l-0.6-0.7l-0.1-0.1l-0.6-0.7l-0.1-0.1l-0.6-0.7l-0.1-0.1l-0.6-0.7l-0.1-0.1l-0.6-0.7
		l-0.1-0.1l-0.6-0.7l-0.1-0.1l-0.6-0.7l-0.1-0.1l-0.6-0.7l-0.1-0.1l-0.6-0.7l-0.1-0.1l-0.6-0.7l-0.1-0.1l-0.6-0.7l-0.1-0.1l-0.6-0.7
		l-0.1-0.1l-0.6-0.7l-0.1-0.1l-0.6-0.7l-0.1-0.1l-0.6-0.7l-0.1-0.1l-0.6-0.7l-0.1-0.1l-0.6-0.7l-0.1-0.1l-0.6-0.7l-0.1-0.1l-0.6-0.7
		l-0.1-0.1l-0.6-0.7l-0.1-0.1l-0.6-0.7l-0.1-0.1l-0.6-0.7l-0.1-0.1l-0.6-0.7l-0.1-0.1l-0.6-0.7l-0.1-0.1l-0.6-0.7l-0.1-0.1l-0.6-0.7
		l-0.1-0.1l-0.6-0.7l-0.1-0.1l-0.6-0.7l-0.1-0.1l-0.6-0.7l-0.1-0.1l-0.6-0.7l-0.1-0.1l-0.6-0.7l-0.1-0.1l-0.6-0.7l-0.1-0.1l-0.6-0.7
		l-0.1-0.1l-0.6-0.7l-0.1-0.1l-0.6-0.7l-0.1-0.1l-0.6-0.7l-0.1-0.1l-0.6-0.7l-0.1-0.1l-0.6-0.7l-0.1-0.1l-0.6-0.7l-0.1-0.1l-0.6-0.7
		l-0.1-0.1l-0.6-0.7l-0.1-0.1l-0.6-0.7l-0.1-0.1l-0.6-0.7l-0.1-0.1l-0.6-0.7l-0.1-0.1l-0.6-0.7l-0.1-0.1l-0.6-0.7l-0.1-0.1l-0.6-0.7
		l-0.1-0.1l-0.6-0.7l-0.1-0.1l-0.6-0.7l-0.1-0.1l-0.6-0.7l-0.1-0.1l-0.6-0.7l-0.1-0.1l-0.6-0.7l-0.1-0.1l-0.6-0.7l-0.1-0.1l-0.6-0.7
		l-0.1-0.1l-0.6-0.7l-0.1-0.1l-0.6-0.7l-0.1-0.1l-0.6-0.7l-0.1-0.1l-0.6-0.7l-0.1-0.1l-0.6-0.7l-0.1-0.1l-0.6-0.7l-0.1-0.1l-0.6-0.7
		l-0.1-0.1l-0.6-0.7l-0.1-0.1l-0.6-0.7l-0.1-0.1l-0.6-0.7l-0.1-0.1l-0.6-0.7l-0.1-0.1l-0.6-0.7l-0.1-0.1l-0.6-0.7l-0.1-0.1l-0.6-0.7
		l-0.1-0.1l-0.6-0.7l-0.1-0.1l-0.6-0.7l-0.1-0.1l-0.6-0.7l-0.1-0.1l-0.6-0.7l-0.1-0.1l-0.6-0.7l-0.1-0.1l-0.6-0.7l-0.1-0.1l-0.6-0.7
		l-0.1-0.1l-0.6-0.7l-0.1-0.1l-0.6-0.7l-0.1-0.1l-0.6-0.7l-0.1-0.1l-0.6-0.7l-0.1-0.1l-0.6-0.7l-0.1-0.1l-0.6-0.7l-0.1-0.1l-0.6-0.7
		l-0.1-0.1l-0.6-0.7l-0.1-0.1l-0.6-0.7l-0.1-0.1l-0.6-0.7l-0.1-0.1l-0.6-0.7l-0.1-0.1l-0.6-0.7l-0.1-0.1l-0.6-0.7l-0.1-0.1l-0.6-0.7
		l-0.1-0.1l-0.6-0.7l-0.1-0.1l-0.6-0.7l-0.1-0.1l-0.6-0.7l-0.1-0.1l-0.6-0.7l-0.1-0.1l-0.6-0.7l-0.1-0.1l-0.6-0.7l-0.1-0.1l-0.6-0.7
		l-0.1-0.1l-0.6-0.7l-0.1-0.1l-0.6-0.7l-0.1-0.1l-0.6-0.7l-0.1-0.1l-0.6-0.7l-0.1-0.1l-0.6-0.7l-0.1-0.1l-0.6-0.7l-0.1-0.1l-0.6-0.7
		l-0.1-0.1l-0.6-0.7l-0.1-0.1l-0.6-0.7l-0.1-0.1l-0.6-0.7l-0.1-0.1l-0.6-0.7l-0.1-0.1l-0.6-0.7l-0.1-0.1l-0.6-0.7l-0.1-0.1l-0.6-0.7
		l-0.1-0.1l-0.6-0.7l-0.1-0.1l-0.6-0.7l-0.1-0.1l-0.6-0.7l-0.1-0.1l-0.6-0.7l-0.1-0.1l-0.6-0.7l-0.1-0.1l-0.6-0.7l-0.1-0.1l-0.6-0.7
		c-0.6-0.7-1.2-1.2-1.8-1.7l-0.9,6.9c-0.2,0.1-0.3,0.1-0.5,0.2l0.1-1.1c-0.3,0.1-0.5,0.2-0.8,0.4l0.1-1.1c-0.3,0.1-0.5,0.2-0.8,0.4
		l0.1-1.1c-0.3,0.1-0.5,0.2-0.8,0.4l0.1-1.1c-0.3,0.1-0.5,0.2-0.8,0.4l0.1-1.1c-0.3,0.1-0.5,0.2-0.8,0.4l0.1-1.1
		c-0.3,0.1-0.5,0.2-0.8,0.4l0.1-1.1c-0.3,0.1-0.5,0.2-0.8,0.4l0.1-1.1c-0.3,0.1-0.5,0.2-0.8,0.4l0.1-1.1c-0.3,0.1-0.5,0.2-0.8,0.4
		l0.1-1.1c-0.7,0.3-1.4,0.6-1.9,1.1l-83.9,69.8c-0.6,0.5-1.1,1-1.3,1.6l1.1,0.1c-0.2,0.2-0.3,0.5-0.4,0.7l1.1,0.1
		c-0.2,0.2-0.3,0.5-0.4,0.7l8.5,4.4c-0.2,0.2-0.3,0.5-0.4,0.7l1.1,0.1c-0.2,0.2-0.3,0.5-0.4,0.7l1.1,0.1c-0.2,0.2-0.3,0.5-0.4,0.7
		l1.1,0.1c-0.2,0.2-0.3,0.5-0.4,0.7l1.1,0.1c-0.2,0.2-0.3,0.5-0.4,0.7l1.1,0.1c-0.2,0.2-0.3,0.5-0.4,0.7l1.1,0.1
		c-0.2,0.2-0.3,0.5-0.4,0.7l1.1,0.1c-0.2,0.2-0.3,0.4-0.4,0.6l-7.1-0.4c0.8,1.3,1.2,2.1,1.3,2.1l47.2,57.1l0.1,0.1l0.5,0.7l0.1,0.1
		l0.5,0.7l0.1,0.1l0.5,0.7l0.1,0.1l0.5,0.7l0.1,0.1l0.5,0.7l0.1,0.1l0.5,0.7l0.1,0.1l0.5,0.7l0.1,0.1l0.5,0.7l0.1,0.1l0.5,0.7
		l0.1,0.1l0.5,0.7l0.1,0.1l0.5,0.7l0.1,0.1l0.5,0.7l0.1,0.1l0.5,0.7l0.1,0.1l0.5,0.7l0.1,0.1l0.5,0.7l0.1,0.1l0.5,0.7l0.1,0.1
		l0.5,0.7l0.1,0.1l0.5,0.7l0.1,0.1l0.5,0.7l0.1,0.1l0.5,0.7l0.1,0.1l0.5,0.7l0.1,0.1l0.5,0.7l0.1,0.1l0.5,0.7l0.1,0.1l0.5,0.7
		l0.1,0.1l0.5,0.7l0.1,0.1l0.5,0.7l0.1,0.1l0.5,0.7l0.1,0.1l0.5,0.7l0.1,0.1l0.5,0.7l0.1,0.1l0.5,0.7l0.1,0.1l0.5,0.7l0.1,0.1
		l0.5,0.7l0.1,0.1l0.5,0.7l0.1,0.1l0.5,0.7l0.1,0.1l0.5,0.7l0.1,0.1l0.5,0.7l0.1,0.1l0.5,0.7l0.1,0.1l0.5,0.7l0.1,0.1l0.5,0.7
		l0.1,0.1l0.5,0.7l0.1,0.1l0.5,0.7l0.1,0.1l0.5,0.7l0.1,0.1l0.5,0.7l0.1,0.1l0.5,0.7l0.1,0.1l0.5,0.7l0.1,0.1l0.5,0.7l0.1,0.1
		l0.5,0.7l0.1,0.1l0.5,0.7l0.1,0.1l0.5,0.7l0.1,0.1l0.5,0.7l0.1,0.1l0.5,0.7l0.1,0.1l0.5,0.7l0.1,0.1l0.5,0.7l0.1,0.1h76.2
		c11,0,20-9,20-20v-64.1l0,0L1.9,200.2z"/>
</g>
<image style="overflow:visible;opacity:0.5;enable-background:new    ;" width="165" height="161" xlink:href="F47B0E8A.png"  transform="matrix(0.9999 -1.454231e-002 1.454231e-002 0.9999 -186.1619 94.2083)">
</image>
<path class="st3" d="M-131.9,237.8l-48.3-56.6c-0.1-0.1-0.5-0.8-1.3-2.1l55.1,2.2l-3.5,58.2C-130.7,238.7-131.5,238.2-131.9,237.8z
	 M-181,171.8c0.3-0.6,0.7-1.1,1.3-1.6l83-70.8c0.5-0.5,1.2-0.8,1.9-1.1l-6.5,55l-1.1,7l-1.9,14.1l-14.2-0.3l-7.1-0.1L-181,171.8z
	 M-122.6,240.1l3.6-58.6l21,0.3l3-20.7l58.4,5.7c-0.3,0.6-0.8,1.1-1.3,1.6l-83,70.8C-121.4,239.5-122,239.8-122.6,240.1z
	 M-94.1,153.8l6.4-54.7c0.7,0.4,1.3,1,1.9,1.6l48.3,56.6c0.5,0.6,1,1.3,1.4,2.2L-94.1,153.8z"/>
<path class="st4" d="M-131.6,237.3l-48.3-56.6c-0.1-0.1-0.5-0.8-1.3-2.1l55.1,2.2l-3.5,58.2C-130.6,238.2-131.2,237.7-131.6,237.3z
	 M-122.4,239.5l3.6-58.6l21,0.3l3-20.7l58.4,5.7c-0.3,0.6-0.8,1.1-1.3,1.6l-83,70.9C-121.2,239-121.8,239.3-122.4,239.5z
	 M-93.9,153.3l6.4-54.7c0.7,0.4,1.3,1,1.9,1.6l48.3,56.6c0.5,0.6,1,1.3,1.4,2.2L-93.9,153.3z"/>
</svg>
